<svg xmlns="http://www.w3.org/2000/svg" xmlns:xlink="http://www.w3.org/1999/xlink" width="276" height="196" viewBox="0 0 276 196">
    <defs>
        <rect id="a" width="276" height="196" rx="6"/>
        <rect id="b" width="41" height="26" y="2" rx="2"/>
        <rect id="c" width="41" height="26" y="2" rx="2"/>
        <path id="d" d="M0 47.803a3.839 3.839 0 0 1 3.842-3.835h61.925a3.837 3.837 0 0 1 3.841 3.835v19.094a3.839 3.839 0 0 1-3.841 3.835H3.842A3.837 3.837 0 0 1 0 66.897V47.803z"/>
    </defs>
    <g fill="none" fill-rule="evenodd">
        <g>
            <use fill="#EDEDED" xlink:href="#a"/>
            <rect width="275" height="195" x=".5" y=".5" stroke="#D8D8D8" rx="6"/>
        </g>
        <path fill="#292E34" d="M111.08 123.24c2.98 0 5.08-1.74 5.08-4.52 0-2.72-2.02-4.3-4.26-4.3-1.28 0-2.38.52-3.02 1.16v-3.86h6.4v-2.06h-8.74v7.46l1.66.48c.84-.8 1.78-1.16 2.92-1.16 1.64 0 2.68.94 2.68 2.38 0 1.3-1.06 2.34-2.74 2.34-1.5 0-2.7-.56-3.6-1.58l-1.34 1.6c1.08 1.28 2.66 2.06 4.96 2.06zm10.192-.24h-2.1v-7.82h-1.6v-1.84h1.6v-.54c0-2.1 1.22-3.34 3.06-3.34.86 0 1.72.22 2.32.84l-.82 1.3c-.28-.26-.64-.42-1.12-.42-.82 0-1.34.54-1.34 1.62v.54h1.96v1.84h-1.96V123zm6.773.24c-1.62 0-2.48-.88-2.48-2.48v-5.58h-1.6v-1.84h1.6v-2.64h2.1v2.64h1.96v1.84h-1.96v5.06c0 .66.32 1.14.92 1.14.4 0 .78-.16.94-.34l.5 1.58c-.38.36-1 .62-1.98.62z"/>
        <path fill="#232323" d="M139.92 98.996v2.51c0 1.548 1.013 2.061 2.262 1.144l4.819-3.54c1.244-.913 1.249-2.392 0-3.295l-4.819-3.484c-1.244-.9-2.261-.38-2.261 1.17V96H96.079v-2.5c0-1.55-1.017-2.07-2.261-1.17l-4.819 3.484c-1.249.903-1.244 2.382 0 3.296l4.819 3.539c1.249.917 2.261.404 2.261-1.144v-2.51h43.842z"/>
        <g transform="translate(36 58)">
            <use fill="#7FCBCF" xlink:href="#b"/>
            <rect width="38" height="23" x="1.5" y="3.5" stroke="#232323" stroke-width="3" rx="2"/>
            <rect width="9" height="6" x="34" y="12" fill="#232323" rx="1"/>
            <path fill="#232323" d="M31.01 0c.546 0 .99.446.99.998v7.004c0 .551-.451.998-.99.998h-4.02a.994.994 0 0 1-.99-.998V.998c0-.551.451-.998.99-.998M24.01 0A.99.99 0 0 1 25 1.003v4.994C25 6.551 24.549 7 24.01 7h-4.02A.99.99 0 0 1 19 5.997V1.003C19 .449 19.451 0 19.99 0M2 4h13v2.99c0 .558-.447 1.01-.999 1.01H2V4zM39 26H29v-5.01a1 1 0 0 1 .995-.99H39M2 19h2.99c.558 0 1.01.444 1.01 1v3a1 1 0 0 1-1.01 1H2v-5z"/>
            <rect width="2" height="12" x="10" y="11" fill="#232323" rx="1"/>
            <rect width="2" height="12" x="14" y="11" fill="#232323" rx="1"/>
            <path fill="#232323" d="M18 12.002c0-.553.453-1.002.997-1.002h6.006c.55 0 .997.456.997 1.002v9.996c0 .553-.453 1.002-.997 1.002h-6.006c-.55 0-.997-.456-.997-1.002v-9.996z"/>
        </g>
        <g transform="translate(36 110)">
            <use fill="#7FCBCF" xlink:href="#c"/>
            <rect width="38" height="23" x="1.5" y="3.5" stroke="#232323" stroke-width="3" rx="2"/>
            <rect width="9" height="6" x="34" y="12" fill="#232323" rx="1"/>
            <path fill="#232323" d="M31.01 0c.546 0 .99.446.99.998v7.004c0 .551-.451.998-.99.998h-4.02a.994.994 0 0 1-.99-.998V.998c0-.551.451-.998.99-.998M24.01 0A.99.99 0 0 1 25 1.003v4.994C25 6.551 24.549 7 24.01 7h-4.02A.99.99 0 0 1 19 5.997V1.003C19 .449 19.451 0 19.99 0M2 4h13v2.99c0 .558-.447 1.01-.999 1.01H2V4zM39 26H29v-5.01a1 1 0 0 1 .995-.99H39M2 19h2.99c.558 0 1.01.444 1.01 1v3a1 1 0 0 1-1.01 1H2v-5z"/>
            <rect width="2" height="12" x="10" y="11" fill="#232323" rx="1"/>
            <rect width="2" height="12" x="14" y="11" fill="#232323" rx="1"/>
            <path fill="#232323" d="M18 12.002c0-.553.453-1.002.997-1.002h6.006c.55 0 .997.456.997 1.002v9.996c0 .553-.453 1.002-.997 1.002h-6.006c-.55 0-.997-.456-.997-1.002v-9.996z"/>
        </g>
        <g transform="translate(168 41)">
            <use fill="#7FCBCF" xlink:href="#d"/>
            <path stroke="#2C2C2C" stroke-width="8" d="M-4 47.803v19.094c0 4.33 3.512 7.835 7.842 7.835h61.925c4.328 0 7.841-3.506 7.841-7.835V47.803c0-4.33-3.512-7.835-7.841-7.835H3.842C-.487 39.968-4 43.475-4 47.803z"/>
        </g>
        <path fill="#2C2C2C" d="M223.517 63.441a5.605 5.605 0 0 0-1.609 3.936v10.335h1.61v1.596h8.045v-1.596h1.61V67.377a5.609 5.609 0 0 0-1.61-3.934V45.027A4.02 4.02 0 0 0 227.54 41a4.028 4.028 0 0 0-4.023 4.027v18.414zm-52.299 55.77h11.265v2.869c0 1.06-.865 1.92-1.911 1.92h-7.443a1.913 1.913 0 0 1-1.91-1.92v-2.868zm50.69 0h11.264v2.869c0 1.06-.865 1.92-1.91 1.92h-7.443a1.913 1.913 0 0 1-1.911-1.92v-2.868zm-29.77-16.76c-2.222 0-4.023-1.786-4.023-3.99 0-2.203 1.801-3.99 4.023-3.99 2.222 0 4.023 1.787 4.023 3.99 0 2.204-1.801 3.99-4.023 3.99zm45.816-8.81v8.045h-9.252c-1.06 0-1.92-.86-1.92-1.927v-4.191c0-1.065.857-1.928 1.92-1.928h9.252zm-57.885 8.81c-2.222 0-4.023-1.786-4.023-3.99 0-2.203 1.801-3.99 4.023-3.99 2.222 0 4.023 1.787 4.023 3.99 0 2.204-1.801 3.99-4.023 3.99z"/>
    </g>
</svg>
