<svg xmlns="http://www.w3.org/2000/svg" xmlns:xlink="http://www.w3.org/1999/xlink" width="276" height="196" viewBox="0 0 276 196">
    <defs>
        <path id="a" d="M0 6c0-3.314 2.687-6 6.005-6h263.99A6.009 6.009 0 0 1 276 6v184c0 3.314-2.687 6-6.005 6H6.005A6.009 6.009 0 0 1 0 190V6z"/>
    </defs>
    <g fill="none" fill-rule="evenodd">
        <use fill="#EDEDED" xlink:href="#a"/>
        <path stroke="#D8D8D8" d="M.5 6C.5 2.962 2.964.5 6.005.5h263.99A5.509 5.509 0 0 1 275.5 6v184c0 3.038-2.464 5.5-5.505 5.5H6.005A5.509 5.509 0 0 1 .5 190V6z"/>
        <path fill="#191C1F" d="M78 72h120v58H78z"/>
        <rect width="130" height="64" x="73" y="69" stroke="#292E34" stroke-width="10" rx="4.8"/>
        <path fill="#545C65" d="M138 79h52.004A2.998 2.998 0 0 1 193 82.007v37.986a3.004 3.004 0 0 1-2.996 3.007H138V79z"/>
        <path fill="#292E34" d="M83 82.007A3.004 3.004 0 0 1 85.996 79H138v44H85.996A2.998 2.998 0 0 1 83 119.993V82.007z"/>
        <path fill="#545C65" d="M102.348 105.168c-2.8 0-4.774-2.044-4.774-4.83s1.974-4.83 4.774-4.83 4.774 2.044 4.774 4.83-1.974 4.83-4.774 4.83zm0-1.456c1.876 0 3.094-1.456 3.094-3.374 0-1.932-1.218-3.374-3.094-3.374-1.89 0-3.094 1.442-3.094 3.374 0 1.918 1.204 3.374 3.094 3.374zm8.213 1.288v-4.032h4.662v-1.442h-4.662v-2.422h4.76v-1.442h-6.398V105h1.638zm8.086 0v-4.032h4.662v-1.442h-4.662v-2.422h4.76v-1.442h-6.397V105h1.637z"/>
        <path fill="#7FCBCF" d="M160.348 105.168c-2.8 0-4.774-2.044-4.774-4.83s1.974-4.83 4.774-4.83 4.774 2.044 4.774 4.83-1.974 4.83-4.774 4.83zm0-1.456c1.876 0 3.094-1.456 3.094-3.374 0-1.932-1.218-3.374-3.094-3.374-1.89 0-3.094 1.442-3.094 3.374 0 1.918 1.204 3.374 3.094 3.374zM175.015 105v-9.338h-1.638v6.482l-4.774-6.482h-1.68V105h1.638v-6.664l4.872 6.664h1.582zM198.76 45.873A2.878 2.878 0 0 0 195.88 43a2.885 2.885 0 0 0-2.88 2.873v11.534a2.878 2.878 0 0 0 2.88 2.873c1.59 0 2.88-1.299 2.88-2.873V45.873zm15.844 3.935a2.878 2.878 0 0 0-1.058-3.928 2.885 2.885 0 0 0-3.93 1.048l-5.768 9.989a2.878 2.878 0 0 0 1.058 3.928 2.885 2.885 0 0 0 3.93-1.048l5.768-9.989zM226.127 79A2.878 2.878 0 0 0 229 76.12c0-1.59-1.299-2.88-2.873-2.88h-11.534a2.878 2.878 0 0 0-2.873 2.88c0 1.59 1.299 2.88 2.873 2.88h11.534zm-1.055-16.615a2.878 2.878 0 0 0 1.048-3.93 2.885 2.885 0 0 0-3.928-1.059l-9.989 5.768a2.878 2.878 0 0 0-1.048 3.93 2.885 2.885 0 0 0 3.928 1.058l9.989-5.767z"/>
    </g>
</svg>
