<svg xmlns="http://www.w3.org/2000/svg" xmlns:xlink="http://www.w3.org/1999/xlink" width="198" height="133" viewBox="0 0 198 133">
    <defs>
        <rect id="a" width="196" height="131" rx="2"/>
    </defs>
    <g fill="none" fill-rule="evenodd" transform="translate(1 1)">
        <mask id="b" fill="#fff">
            <use xlink:href="#a"/>
        </mask>
        <use fill="#FFF" xlink:href="#a"/>
        <rect width="197" height="132" x="-.5" y="-.5" stroke="#D8D8D8" rx="2"/>
        <g mask="url(#b)">
            <path fill="#DDD" d="M10 99.786h186.363v1H10z"/>
            <path fill="#353D45" d="M150.056 90.53v-4.802h-.598v2.067h-2.808v-2.067h-.598v4.803h.598v-2.204h2.808v2.204h.598zm4.12 0v-3.477h-.54v2.556a1.33 1.33 0 0 1-1.029.526c-.468 0-.777-.18-.777-.792v-2.29h-.54v2.455c0 .756.381 1.109 1.108 1.109.519 0 .972-.274 1.239-.576v.49h.54zm5.95 0v-2.512c0-.699-.338-1.051-.971-1.051-.504 0-.972.33-1.167.648-.1-.36-.403-.648-.936-.648-.51 0-.979.367-1.123.59v-.504h-.54v3.478h.54v-2.542c.187-.28.562-.54.914-.54.454 0 .641.28.641.72v2.362h.54v-2.55c.18-.273.562-.532.922-.532.446 0 .64.28.64.72v2.362h.54zm1.48-3.974a.363.363 0 0 0 .367-.36.369.369 0 0 0-.368-.367.367.367 0 0 0-.36.367c0 .202.166.36.36.36zm.273 3.975v-3.478h-.54v3.478h.54zm4.272 0h-.54v-.519c-.259.353-.684.605-1.173.605-.907 0-1.548-.691-1.548-1.822 0-1.108.633-1.828 1.548-1.828.468 0 .893.23 1.173.612v-1.85h.54v4.802zm-1.584-.396c.432 0 .85-.245 1.044-.548v-1.576a1.306 1.306 0 0 0-1.044-.562c-.698 0-1.116.576-1.116 1.346 0 .77.418 1.34 1.116 1.34zm3.675.482c.317 0 .511-.094.648-.223l-.158-.403a.521.521 0 0 1-.367.144c-.238 0-.353-.188-.353-.447v-2.16h.705v-.475h-.705v-.95h-.54v.95h-.576v.475h.576v2.275c0 .519.259.814.77.814zm1.176 1.274c.101.03.281.05.396.05.461-.006.814-.2 1.023-.705l1.742-4.183h-.59l-1.152 2.851-1.16-2.851h-.583l1.455 3.514-.23.525c-.123.288-.281.367-.519.367a.828.828 0 0 1-.295-.057l-.087.49zm8.56-1.36h-.54v-.396c-.288.316-.684.482-1.152.482-.59 0-1.217-.396-1.217-1.152 0-.778.626-1.145 1.217-1.145.475 0 .87.151 1.152.475v-.626c0-.468-.375-.734-.879-.734-.417 0-.756.15-1.065.482l-.252-.374c.374-.39.82-.576 1.39-.576.734 0 1.346.33 1.346 1.173v2.39zm-1.498-.303c.382 0 .749-.144.958-.432v-.655c-.21-.288-.576-.432-.958-.432-.504 0-.857.317-.857.763 0 .44.353.756.857.756zm3.588.389c.317 0 .512-.094.648-.223l-.158-.403a.521.521 0 0 1-.367.144c-.238 0-.353-.188-.353-.447v-2.16h.706v-.475h-.706v-.95h-.54v.95h-.576v.475h.576v2.275c0 .519.26.814.77.814zm4.758-.007c-.612 0-1.03-.23-1.332-.576l.302-.447c.245.288.533.49 1.03.49.972 0 1.353-.972 1.353-1.88 0-.064 0-.129-.007-.194-.209.332-.741.75-1.353.75-.864 0-1.577-.512-1.577-1.534 0-.828.633-1.57 1.677-1.57 1.347 0 1.858 1.174 1.858 2.484 0 1.296-.605 2.477-1.951 2.477zm.13-2.376c.475 0 .943-.288 1.195-.713-.05-.598-.368-1.34-1.203-1.34-.734 0-1.101.562-1.101 1.016 0 .706.49 1.037 1.108 1.037zm4.488 2.383c.965 0 1.706-.605 1.706-1.584 0-.986-.727-1.534-1.526-1.534-.483 0-.893.202-1.123.432v-1.67h2.34v-.533h-2.938v2.592l.44.151a1.505 1.505 0 0 1 1.108-.453c.648 0 1.102.403 1.102 1.037 0 .583-.454 1.03-1.11 1.03-.59 0-1.007-.231-1.324-.634l-.367.396c.36.475.878.77 1.692.77zm3.588-2.592c-.684 0-1.152-.504-1.152-1.174 0-.676.468-1.195 1.152-1.195.691 0 1.167.519 1.167 1.195 0 .67-.476 1.174-1.167 1.174zm-.065 2.506h-.388l3.067-4.803h.396l-3.075 4.803zm2.57.086c-.683 0-1.151-.504-1.151-1.174 0-.676.468-1.195 1.152-1.195.684 0 1.159.519 1.159 1.195 0 .67-.475 1.174-1.16 1.174zm-2.505-2.952c.432 0 .735-.36.735-.814 0-.475-.303-.828-.735-.828-.425 0-.72.353-.72.828 0 .454.295.814.72.814zm2.506 2.592c.432 0 .734-.36.734-.814 0-.475-.302-.828-.734-.828s-.727.353-.727.828c0 .454.295.814.727.814zM11.937 91.08c-.612 0-1.03-.231-1.332-.577l.302-.446c.245.288.533.49 1.03.49.972 0 1.353-.973 1.353-1.88 0-.065 0-.13-.007-.194-.209.331-.741.749-1.353.749-.864 0-1.577-.512-1.577-1.534 0-.828.633-1.57 1.677-1.57 1.347 0 1.858 1.174 1.858 2.484 0 1.296-.605 2.477-1.951 2.477zm.13-2.377c.475 0 .943-.288 1.195-.713-.05-.597-.368-1.339-1.203-1.339-.734 0-1.101.562-1.101 1.015 0 .706.49 1.037 1.108 1.037zm3.149-.439a.4.4 0 0 0 .396-.396.4.4 0 0 0-.396-.396.4.4 0 0 0-.396.396.4.4 0 0 0 .396.396zm0 2.808a.4.4 0 0 0 .396-.396.4.4 0 0 0-.396-.396.4.4 0 0 0-.396.396.4.4 0 0 0 .396.396zm3.127.014c.965 0 1.707-.604 1.707-1.584 0-.986-.728-1.533-1.527-1.533-.482 0-.893.201-1.123.432v-1.67h2.34v-.533h-2.938v2.592l.44.15a1.505 1.505 0 0 1 1.108-.453c.648 0 1.102.403 1.102 1.037 0 .583-.454 1.03-1.109 1.03-.59 0-1.008-.23-1.325-.634l-.367.396c.36.475.879.77 1.692.77zM22.435 91v-4.802h-.525l-1.203 1.238.36.367.77-.813V91h.598zm1.522-2.736a.4.4 0 0 0 .396-.396.4.4 0 0 0-.396-.396.4.4 0 0 0-.396.396.4.4 0 0 0 .396.396zm0 2.808a.4.4 0 0 0 .396-.396.4.4 0 0 0-.396-.396.4.4 0 0 0-.396.396.4.4 0 0 0 .396.396zm2.876.014c1.058 0 1.7-.583 1.7-1.382 0-.77-.67-1.145-1.11-1.18.454-.08 1.037-.426 1.037-1.117 0-.813-.705-1.281-1.627-1.281-.742 0-1.296.324-1.642.741l.332.375c.352-.382.741-.584 1.267-.584.583 0 1.073.288 1.073.821 0 .555-.512.792-1.116.792-.195 0-.418 0-.497-.007v.547c.072-.007.295-.007.497-.007.705 0 1.195.252 1.195.85 0 .554-.425.9-1.123.9-.57 0-1.059-.26-1.34-.634l-.352.374c.295.432.892.792 1.706.792zm4.445 0c-1.34 0-1.85-1.173-1.85-2.476 0-1.304.605-2.484 1.95-2.484.62 0 1.038.237 1.333.576l-.302.446c-.245-.288-.526-.49-1.03-.49-.929 0-1.354.944-1.354 1.887 0 .065 0 .122.008.187.208-.331.741-.749 1.36-.749.864 0 1.57.511 1.57 1.534 0 .835-.634 1.57-1.685 1.57zm-.021-.532c.741 0 1.101-.555 1.101-1.016 0-.705-.49-1.036-1.109-1.036-.475 0-.936.295-1.202.72.058.597.374 1.332 1.21 1.332zM40.11 91h-.684l-.425-1.066h-2.39L36.187 91h-.684l1.93-4.802h.741L40.111 91zm-1.289-1.598l-1.015-2.585-1.023 2.585h2.038zM45.572 91v-4.802h-.858l-1.497 3.614-1.49-3.614h-.857V91h.597v-3.953L43.094 91h.245l1.635-3.953V91h.597zm5.63.144v-5.09h-.395v5.09h.396zm4.017-.058c.856 0 1.526-.49 1.526-1.533v-3.355h-.598v3.348c0 .597-.374 1.008-.964 1.008-.418 0-.699-.224-.908-.476l-.31.454c.332.389.742.554 1.254.554zM60.866 91v-3.478h-.54v2.556a1.33 1.33 0 0 1-1.03.526c-.468 0-.777-.18-.777-.792v-2.29h-.54v2.456c0 .756.381 1.108 1.109 1.108.518 0 .972-.273 1.238-.576V91h.54zm4.1 0v-2.44c0-.757-.382-1.124-1.11-1.124-.518 0-.993.302-1.238.59v-.504h-.54V91h.54v-2.542c.202-.28.605-.54 1.03-.54.468 0 .778.195.778.807V91h.54zm2.782.086c-1.03 0-1.772-.741-1.772-1.828 0-1.008.72-1.822 1.714-1.822 1.051 0 1.67.82 1.67 1.865v.137h-2.815c.043.655.504 1.202 1.253 1.202.396 0 .8-.158 1.073-.44l.259.354c-.346.345-.814.532-1.382.532zm1.08-2.044c-.008-.519-.353-1.16-1.145-1.16-.742 0-1.109.627-1.138 1.16h2.283zM75.5 91v-.533h-2.354c1.34-1.058 2.333-1.951 2.333-2.93 0-.958-.814-1.411-1.613-1.411-.677 0-1.303.273-1.67.756l.367.381c.28-.36.727-.605 1.303-.605.497 0 1 .267 1 .879 0 .828-.935 1.627-2.663 2.988V91H75.5zm1.947-.173c0-.345-.216-.547-.454-.547a.386.386 0 0 0-.381.389c0 .216.144.367.345.367a.334.334 0 0 0 .101-.014c-.029.237-.237.518-.468.67l.267.222c.33-.237.59-.648.59-1.087zm6.198.173v-.533H81.29c1.34-1.058 2.333-1.951 2.333-2.93 0-.958-.814-1.411-1.613-1.411-.677 0-1.303.273-1.67.756l.367.381c.28-.36.727-.605 1.303-.605.497 0 1.001.267 1.001.879 0 .828-.936 1.627-2.664 2.988V91h3.298zm2.882.086c-1.317 0-1.836-1.317-1.836-2.484 0-1.173.519-2.476 1.836-2.476 1.31 0 1.836 1.303 1.836 2.476 0 1.167-.525 2.484-1.836 2.484zm0-.532c.915 0 1.224-.994 1.224-1.952 0-.957-.31-1.944-1.224-1.944-.914 0-1.224.987-1.224 1.944 0 .958.31 1.952 1.224 1.952zm4.215.446v-4.802h-.526l-1.202 1.238.36.367.77-.813V91h.598zm2.228 0l1.965-4.392v-.41H91.66v.532h2.585L92.307 91h.663z"/>
            <path fill="#DDD" d="M10 123.786h186.363v1H10z"/>
            <path fill="#353D45" d="M148.241 114.53h-2.189v-4.802h2.139c.835 0 1.346.504 1.346 1.224 0 .605-.403 1.008-.842 1.102.511.079.936.605.936 1.18 0 .771-.511 1.297-1.39 1.297zm-.151-2.721c.54 0 .828-.331.828-.77 0-.432-.288-.778-.828-.778h-1.44v1.548h1.44zm.029 2.189c.561 0 .893-.317.893-.828 0-.44-.303-.828-.893-.828h-1.469v1.656h1.469zm5.287.533h-.54v-.396c-.288.316-.684.482-1.152.482-.59 0-1.216-.396-1.216-1.152 0-.778.626-1.145 1.216-1.145.476 0 .872.151 1.152.475v-.626c0-.468-.374-.734-.878-.734-.418 0-.756.15-1.066.482l-.252-.374c.375-.39.821-.576 1.39-.576.734 0 1.346.33 1.346 1.173v2.39zm-1.497-.303c.381 0 .749-.144.957-.432v-.655c-.208-.288-.576-.432-.957-.432-.504 0-.857.317-.857.763 0 .44.353.756.857.756zm3.588.389c.317 0 .511-.094.648-.223l-.158-.403a.521.521 0 0 1-.368.144c-.237 0-.352-.188-.352-.447v-2.16h.705v-.475h-.705v-.95h-.54v.95h-.576v.475h.576v2.275c0 .519.259.814.77.814zm2.25 0c.316 0 .51-.094.647-.223l-.158-.403a.521.521 0 0 1-.367.144c-.238 0-.353-.188-.353-.447v-2.16h.705v-.475h-.705v-.95h-.54v.95h-.576v.475h.576v2.275c0 .519.259.814.77.814zm2.94 0c-1.03 0-1.772-.742-1.772-1.829 0-1.008.72-1.821 1.714-1.821 1.051 0 1.67.82 1.67 1.864v.137h-2.815c.043.655.504 1.203 1.253 1.203.396 0 .8-.159 1.073-.44l.259.353c-.346.346-.814.533-1.382.533zm1.08-2.045c-.008-.518-.353-1.159-1.145-1.159-.742 0-1.109.626-1.138 1.16h2.283zm2.076 1.959v-2.463c.158-.28.612-.554.943-.554.087 0 .151.007.216.021v-.554c-.475 0-.878.266-1.16.634v-.562h-.54v3.478h.54zm1.774 1.36c.1.03.28.05.396.05.46-.006.813-.2 1.022-.705l1.743-4.183h-.59l-1.153 2.851-1.159-2.851h-.583l1.454 3.514-.23.525c-.123.288-.28.367-.519.367a.828.828 0 0 1-.295-.057l-.086.49zm8.696-1.36v-.533h-2.232v-4.27h-.598v4.803h2.83zm2.371.086c-1.03 0-1.77-.742-1.77-1.829 0-1.008.72-1.821 1.713-1.821 1.051 0 1.67.82 1.67 1.864v.137h-2.815c.043.655.504 1.203 1.253 1.203.396 0 .799-.159 1.073-.44l.259.353c-.346.346-.814.533-1.383.533zm1.08-2.045c-.007-.518-.352-1.159-1.144-1.159-.742 0-1.11.626-1.138 1.16h2.282zm3.056 1.959l1.447-3.478h-.59l-1.152 2.851-1.16-2.851h-.583l1.448 3.478h.59zm3.71.086c-1.029 0-1.77-.742-1.77-1.829 0-1.008.72-1.821 1.713-1.821 1.051 0 1.67.82 1.67 1.864v.137h-2.815c.043.655.504 1.203 1.253 1.203.396 0 .8-.159 1.073-.44l.26.353c-.347.346-.815.533-1.383.533zm1.08-2.045c-.007-.518-.352-1.159-1.144-1.159-.742 0-1.109.626-1.138 1.16h2.283zm2.077 1.959v-4.803h-.54v4.803h.54zm5.917 0h-.54v-.396c-.288.316-.684.482-1.152.482-.59 0-1.217-.396-1.217-1.152 0-.778.626-1.145 1.217-1.145.475 0 .87.151 1.152.475v-.626c0-.468-.375-.734-.879-.734-.417 0-.756.15-1.065.482l-.252-.374c.374-.39.82-.576 1.39-.576.734 0 1.346.33 1.346 1.173v2.39zm-1.498-.303c.382 0 .749-.144.958-.432v-.655c-.21-.288-.576-.432-.958-.432-.504 0-.857.317-.857.763 0 .44.353.756.857.756zm3.588.389c.317 0 .512-.094.648-.223l-.158-.403a.521.521 0 0 1-.367.144c-.238 0-.353-.188-.353-.447v-2.16h.706v-.475h-.706v-.95h-.54v.95h-.576v.475h.576v2.275c0 .519.26.814.77.814zm4.7-.086v-4.803h-.525l-1.203 1.239.36.367.77-.814v4.01h.598zM11.937 115.08c-.612 0-1.03-.231-1.332-.577l.302-.446c.245.288.533.49 1.03.49.972 0 1.353-.973 1.353-1.88 0-.065 0-.13-.007-.194-.209.331-.741.749-1.353.749-.864 0-1.577-.512-1.577-1.534 0-.828.633-1.57 1.677-1.57 1.347 0 1.858 1.174 1.858 2.484 0 1.296-.605 2.477-1.951 2.477zm.13-2.377c.475 0 .943-.288 1.195-.713-.05-.597-.368-1.339-1.203-1.339-.734 0-1.101.562-1.101 1.015 0 .706.49 1.037 1.108 1.037zm3.149-.439a.4.4 0 0 0 .396-.396.4.4 0 0 0-.396-.396.4.4 0 0 0-.396.396.4.4 0 0 0 .396.396zm0 2.808a.4.4 0 0 0 .396-.396.4.4 0 0 0-.396-.396.4.4 0 0 0-.396.396.4.4 0 0 0 .396.396zm3.127.014c.965 0 1.707-.604 1.707-1.584 0-.986-.728-1.533-1.527-1.533-.482 0-.893.201-1.123.432v-1.67h2.34v-.533h-2.938v2.592l.44.15a1.505 1.505 0 0 1 1.108-.453c.648 0 1.102.403 1.102 1.037 0 .583-.454 1.03-1.109 1.03-.59 0-1.008-.23-1.325-.634l-.367.396c.36.475.879.77 1.692.77zm4.092-.086v-4.802h-.525l-1.203 1.238.36.367.77-.813V115h.598zm1.522-2.736a.4.4 0 0 0 .396-.396.4.4 0 0 0-.396-.396.4.4 0 0 0-.396.396.4.4 0 0 0 .396.396zm0 2.808a.4.4 0 0 0 .396-.396.4.4 0 0 0-.396-.396.4.4 0 0 0-.396.396.4.4 0 0 0 .396.396zm2.876.014c1.058 0 1.7-.583 1.7-1.382 0-.77-.67-1.145-1.11-1.18.454-.08 1.037-.426 1.037-1.117 0-.813-.705-1.281-1.627-1.281-.742 0-1.296.324-1.642.741l.332.375c.352-.382.741-.584 1.267-.584.583 0 1.073.288 1.073.821 0 .555-.512.792-1.116.792-.195 0-.418 0-.497-.007v.547c.072-.007.295-.007.497-.007.705 0 1.195.252 1.195.85 0 .554-.425.9-1.123.9-.57 0-1.059-.26-1.34-.634l-.352.374c.295.432.892.792 1.706.792zm4.445 0c-1.34 0-1.85-1.173-1.85-2.476 0-1.304.605-2.484 1.95-2.484.62 0 1.038.237 1.333.576l-.302.446c-.245-.288-.526-.49-1.03-.49-.929 0-1.354.944-1.354 1.887 0 .065 0 .122.008.187.208-.331.741-.749 1.36-.749.864 0 1.57.511 1.57 1.534 0 .835-.634 1.57-1.685 1.57zm-.021-.532c.741 0 1.101-.555 1.101-1.016 0-.705-.49-1.036-1.109-1.036-.475 0-.936.295-1.202.72.058.597.374 1.332 1.21 1.332zm8.854.446h-.684l-.425-1.066h-2.39L36.187 115h-.684l1.93-4.802h.741L40.111 115zm-1.289-1.598l-1.015-2.585-1.023 2.585h2.038zm6.75 1.598v-4.802h-.858l-1.497 3.614-1.49-3.614h-.857V115h.597v-3.953L43.094 115h.245l1.635-3.953V115h.597zm5.63.144v-5.09h-.395v5.09h.396zm4.017-.058c.856 0 1.526-.49 1.526-1.533v-3.355h-.598v3.348c0 .597-.374 1.008-.964 1.008-.418 0-.699-.224-.908-.476l-.31.454c.332.389.742.554 1.254.554zm5.647-.086v-3.478h-.54v2.556a1.33 1.33 0 0 1-1.03.526c-.468 0-.777-.18-.777-.792v-2.29h-.54v2.456c0 .756.381 1.108 1.109 1.108.518 0 .972-.273 1.238-.576v.49h.54zm4.1 0v-2.44c0-.757-.382-1.124-1.11-1.124-.518 0-.993.302-1.238.59v-.504h-.54V115h.54v-2.542c.202-.28.605-.54 1.03-.54.468 0 .778.195.778.807V115h.54zm2.782.086c-1.03 0-1.772-.741-1.772-1.828 0-1.008.72-1.822 1.714-1.822 1.051 0 1.67.82 1.67 1.865v.137h-2.815c.043.655.504 1.202 1.253 1.202.396 0 .8-.158 1.073-.44l.259.354c-.346.345-.814.532-1.382.532zm1.08-2.044c-.008-.519-.353-1.16-1.145-1.16-.742 0-1.109.627-1.138 1.16h2.283zM75.5 115v-.533h-2.354c1.34-1.058 2.333-1.951 2.333-2.93 0-.958-.814-1.411-1.613-1.411-.677 0-1.303.273-1.67.756l.367.381c.28-.36.727-.605 1.303-.605.497 0 1 .267 1 .879 0 .828-.935 1.627-2.663 2.988V115H75.5zm1.947-.173c0-.345-.216-.547-.454-.547a.386.386 0 0 0-.381.389c0 .216.144.367.345.367a.334.334 0 0 0 .101-.014c-.029.237-.237.518-.468.67l.267.222c.33-.237.59-.648.59-1.087zm6.198.173v-.533H81.29c1.34-1.058 2.333-1.951 2.333-2.93 0-.958-.814-1.411-1.613-1.411-.677 0-1.303.273-1.67.756l.367.381c.28-.36.727-.605 1.303-.605.497 0 1.001.267 1.001.879 0 .828-.936 1.627-2.664 2.988V115h3.298zm2.882.086c-1.317 0-1.836-1.317-1.836-2.484 0-1.173.519-2.476 1.836-2.476 1.31 0 1.836 1.303 1.836 2.476 0 1.167-.525 2.484-1.836 2.484zm0-.532c.915 0 1.224-.994 1.224-1.952 0-.957-.31-1.944-1.224-1.944-.914 0-1.224.987-1.224 1.944 0 .958.31 1.952 1.224 1.952zm4.215.446v-4.802h-.526l-1.202 1.238.36.367.77-.813V115h.598zm2.228 0l1.965-4.392v-.41H91.66v.532h2.585L92.307 115h.663z"/>
            <path fill="#DDD" d="M10 75.704h186.363v1H10z"/>
            <path fill="#353D45" d="M146.65 66.449V64.26h2.498v-.533h-2.498V62.18h2.549v-.532h-3.147v4.802h.598zm4.013 0v-2.462c.159-.281.612-.555.943-.555.087 0 .152.007.216.022v-.555c-.475 0-.878.267-1.159.634v-.562h-.54v3.478h.54zm3.538.086c-1.03 0-1.771-.741-1.771-1.828 0-1.008.72-1.822 1.713-1.822 1.052 0 1.67.82 1.67 1.865v.137H153c.043.655.504 1.202 1.252 1.202.396 0 .8-.158 1.073-.44l.26.354c-.346.345-.814.532-1.383.532zm1.08-2.044c-.007-.519-.353-1.16-1.145-1.16-.741 0-1.109.627-1.137 1.16h2.282zm3.106 2.044c-1.03 0-1.771-.741-1.771-1.828 0-1.008.72-1.822 1.713-1.822 1.052 0 1.67.82 1.67 1.865v.137h-2.814c.043.655.504 1.202 1.252 1.202.396 0 .8-.158 1.073-.44l.26.354c-.346.345-.814.532-1.383.532zm1.08-2.044c-.007-.519-.353-1.16-1.145-1.16-.741 0-1.109.627-1.137 1.16h2.282zm4.02 1.958v-.468h-1.958l1.93-2.6v-.41h-2.621v.476h1.915l-1.915 2.584v.418h2.65zm2.617.086c-1.03 0-1.771-.741-1.771-1.828 0-1.008.72-1.822 1.713-1.822 1.051 0 1.67.82 1.67 1.865v.137h-2.815c.044.655.504 1.202 1.253 1.202.396 0 .8-.158 1.073-.44l.26.354c-.346.345-.814.532-1.383.532zm1.08-2.044c-.007-.519-.353-1.16-1.145-1.16-.742 0-1.109.627-1.138 1.16h2.283zm2.076 1.958v-2.462c.158-.281.612-.555.943-.555.087 0 .151.007.216.022v-.555c-.475 0-.878.267-1.159.634v-.562h-.54v3.478h.54zm5.578 0h-.439l.44-1.303h-.8l-.432 1.303h-.446l.439-1.303h-.763l.122-.382h.77l.476-1.433h-.778l.115-.374h.792l.432-1.31h.447l-.432 1.31h.792l.432-1.31h.439l-.44 1.31h.771l-.108.374h-.785l-.482 1.433h.8l-.116.382h-.814l-.432 1.303zm.123-1.685l.475-1.433h-.792l-.475 1.433h.792zm5.784 1.685v-.533h-2.354c1.339-1.058 2.333-1.951 2.333-2.93 0-.958-.814-1.411-1.613-1.411-.677 0-1.303.273-1.67.756l.367.381c.28-.36.727-.605 1.303-.605.497 0 1 .267 1 .879 0 .828-.935 1.627-2.663 2.988v.475h3.297zm5.017 0h-.598v-4.27h-1.519v-.532h3.643v.532h-1.526v4.27zm3.17.086c-1.029 0-1.77-.741-1.77-1.828 0-1.008.72-1.822 1.713-1.822 1.051 0 1.67.82 1.67 1.865v.137h-2.815c.043.655.504 1.202 1.253 1.202.396 0 .8-.158 1.073-.44l.259.354c-.346.345-.814.532-1.382.532zm1.08-2.044c-.007-.519-.352-1.16-1.144-1.16-.742 0-1.109.627-1.138 1.16h2.283zm6.275 1.958v-2.513c0-.698-.339-1.051-.972-1.051-.504 0-.972.331-1.167.648-.1-.36-.403-.648-.936-.648-.511 0-.979.367-1.123.59v-.504h-.54v3.478h.54v-2.542c.187-.28.562-.54.914-.54.454 0 .641.281.641.72v2.362h.54V63.9c.18-.273.562-.533.922-.533.446 0 .64.281.64.72v2.362h.54zm2.926.086c-.476 0-.893-.223-1.174-.612v1.85h-.54v-4.802h.54v.519a1.454 1.454 0 0 1 1.174-.605c.914 0 1.548.691 1.548 1.822 0 1.123-.634 1.828-1.548 1.828zm-.137-.482c.698 0 1.116-.576 1.116-1.346 0-.77-.418-1.34-1.116-1.34-.425 0-.85.252-1.037.555v1.57c.187.302.612.561 1.037.561zm4.243.482c-1.03 0-1.77-.741-1.77-1.828 0-1.008.72-1.822 1.713-1.822 1.05 0 1.67.82 1.67 1.865v.137h-2.815c.043.655.504 1.202 1.253 1.202.396 0 .799-.158 1.072-.44l.26.354c-.346.345-.814.532-1.383.532zm1.08-2.044c-.007-.519-.353-1.16-1.145-1.16-.741 0-1.108.627-1.137 1.16h2.282zm2.077 1.958v-2.462c.158-.281.612-.555.943-.555.086 0 .151.007.216.022v-.555c-.475 0-.879.267-1.16.634v-.562h-.54v3.478h.54zm4.682 0h-.54v-.396c-.288.317-.684.482-1.152.482-.59 0-1.216-.396-1.216-1.152 0-.777.626-1.144 1.216-1.144.476 0 .872.15 1.152.475v-.627c0-.468-.374-.734-.878-.734-.418 0-.756.151-1.066.482l-.252-.374c.375-.389.821-.576 1.39-.576.734 0 1.346.331 1.346 1.174v2.39zm-1.497-.302c.381 0 .749-.144.957-.432v-.656c-.208-.288-.576-.432-.957-.432-.504 0-.857.317-.857.764 0 .439.353.756.857.756zm3.588.388c.317 0 .511-.093.648-.223l-.158-.403a.521.521 0 0 1-.367.144c-.238 0-.353-.187-.353-.446v-2.16h.705v-.476h-.705v-.95h-.54v.95h-.576v.476h.576v2.275c0 .518.259.813.77.813zm4.258-.086v-3.478h-.54v2.556a1.33 1.33 0 0 1-1.03.526c-.468 0-.777-.18-.777-.792v-2.29h-.54v2.456c0 .756.381 1.108 1.109 1.108.518 0 .972-.273 1.238-.576v.49h.54zm1.752 0v-2.462c.159-.281.612-.555.944-.555.086 0 .15.007.216.022v-.555c-.476 0-.879.267-1.16.634v-.562h-.54v3.478h.54zm3.538.086c-1.03 0-1.77-.741-1.77-1.828 0-1.008.72-1.822 1.713-1.822 1.051 0 1.67.82 1.67 1.865v.137h-2.815c.043.655.504 1.202 1.253 1.202.396 0 .799-.158 1.073-.44l.259.354c-.346.345-.814.532-1.383.532zm1.08-2.044c-.007-.519-.352-1.16-1.144-1.16-.742 0-1.11.627-1.138 1.16h2.282zM11.937 66.08c-.612 0-1.03-.231-1.332-.577l.302-.446c.245.288.533.49 1.03.49.972 0 1.353-.973 1.353-1.88 0-.065 0-.13-.007-.194-.209.331-.741.749-1.353.749-.864 0-1.577-.512-1.577-1.534 0-.828.633-1.57 1.677-1.57 1.347 0 1.858 1.174 1.858 2.484 0 1.296-.605 2.477-1.951 2.477zm.13-2.377c.475 0 .943-.288 1.195-.713-.05-.597-.368-1.339-1.203-1.339-.734 0-1.101.562-1.101 1.015 0 .706.49 1.037 1.108 1.037zm3.149-.439a.4.4 0 0 0 .396-.396.4.4 0 0 0-.396-.396.4.4 0 0 0-.396.396.4.4 0 0 0 .396.396zm0 2.808a.4.4 0 0 0 .396-.396.4.4 0 0 0-.396-.396.4.4 0 0 0-.396.396.4.4 0 0 0 .396.396zm3.127.014c.965 0 1.707-.604 1.707-1.584 0-.986-.728-1.533-1.527-1.533-.482 0-.893.201-1.123.432v-1.67h2.34v-.533h-2.938v2.592l.44.15a1.505 1.505 0 0 1 1.108-.453c.648 0 1.102.403 1.102 1.037 0 .583-.454 1.03-1.109 1.03-.59 0-1.008-.23-1.325-.634l-.367.396c.36.475.879.77 1.692.77zM22.435 66v-4.802h-.525l-1.203 1.238.36.367.77-.813V66h.598zm1.522-2.736a.4.4 0 0 0 .396-.396.4.4 0 0 0-.396-.396.4.4 0 0 0-.396.396.4.4 0 0 0 .396.396zm0 2.808a.4.4 0 0 0 .396-.396.4.4 0 0 0-.396-.396.4.4 0 0 0-.396.396.4.4 0 0 0 .396.396zm2.876.014c1.058 0 1.7-.583 1.7-1.382 0-.77-.67-1.145-1.11-1.18.454-.08 1.037-.426 1.037-1.117 0-.813-.705-1.281-1.627-1.281-.742 0-1.296.324-1.642.741l.332.375c.352-.382.741-.584 1.267-.584.583 0 1.073.288 1.073.821 0 .555-.512.792-1.116.792-.195 0-.418 0-.497-.007v.547c.072-.007.295-.007.497-.007.705 0 1.195.252 1.195.85 0 .554-.425.9-1.123.9-.57 0-1.059-.26-1.34-.634l-.352.374c.295.432.892.792 1.706.792zm4.445 0c-1.34 0-1.85-1.173-1.85-2.476 0-1.304.605-2.484 1.95-2.484.62 0 1.038.237 1.333.576l-.302.446c-.245-.288-.526-.49-1.03-.49-.929 0-1.354.944-1.354 1.887 0 .065 0 .122.008.187.208-.331.741-.749 1.36-.749.864 0 1.57.511 1.57 1.534 0 .835-.634 1.57-1.685 1.57zm-.021-.532c.741 0 1.101-.555 1.101-1.016 0-.705-.49-1.036-1.109-1.036-.475 0-.936.295-1.202.72.058.597.374 1.332 1.21 1.332zM40.11 66h-.684l-.425-1.066h-2.39L36.187 66h-.684l1.93-4.802h.741L40.111 66zm-1.289-1.598l-1.015-2.585-1.023 2.585h2.038zM45.572 66v-4.802h-.858l-1.497 3.614-1.49-3.614h-.857V66h.597v-3.953L43.094 66h.245l1.635-3.953V66h.597zm5.63.144v-5.09h-.395v5.09h.396zm4.017-.058c.856 0 1.526-.49 1.526-1.533v-3.355h-.598v3.348c0 .597-.374 1.008-.964 1.008-.418 0-.699-.224-.908-.476l-.31.454c.332.389.742.554 1.254.554zM60.866 66v-3.478h-.54v2.556a1.33 1.33 0 0 1-1.03.526c-.468 0-.777-.18-.777-.792v-2.29h-.54v2.456c0 .756.381 1.108 1.109 1.108.518 0 .972-.273 1.238-.576V66h.54zm4.1 0v-2.44c0-.757-.382-1.124-1.11-1.124-.518 0-.993.302-1.238.59v-.504h-.54V66h.54v-2.542c.202-.28.605-.54 1.03-.54.468 0 .778.195.778.807V66h.54zm2.782.086c-1.03 0-1.772-.741-1.772-1.828 0-1.008.72-1.822 1.714-1.822 1.051 0 1.67.82 1.67 1.865v.137h-2.815c.043.655.504 1.202 1.253 1.202.396 0 .8-.158 1.073-.44l.259.354c-.346.345-.814.532-1.382.532zm1.08-2.044c-.008-.519-.353-1.16-1.145-1.16-.742 0-1.109.627-1.138 1.16h2.283zM73.693 66v-4.802h-.525l-1.203 1.238.36.367.77-.813V66h.598zm1.961-.173c0-.345-.216-.547-.453-.547a.386.386 0 0 0-.382.389c0 .216.144.367.346.367a.334.334 0 0 0 .1-.014c-.028.237-.237.518-.468.67l.267.222c.331-.237.59-.648.59-1.087zm6.198.173v-.533h-2.355c1.34-1.058 2.333-1.951 2.333-2.93 0-.958-.813-1.411-1.613-1.411-.676 0-1.303.273-1.67.756l.367.381c.281-.36.727-.605 1.303-.605.497 0 1.001.267 1.001.879 0 .828-.936 1.627-2.664 2.988V66h3.298zm2.883.086c-1.318 0-1.836-1.317-1.836-2.484 0-1.173.518-2.476 1.836-2.476 1.31 0 1.836 1.303 1.836 2.476 0 1.167-.526 2.484-1.836 2.484zm0-.532c.914 0 1.224-.994 1.224-1.952 0-.957-.31-1.944-1.224-1.944-.915 0-1.224.987-1.224 1.944 0 .958.31 1.952 1.224 1.952zm4.214.446v-4.802h-.525l-1.203 1.238.36.367.77-.813V66h.598zm2.228 0l1.965-4.392v-.41h-3.276v.532h2.585L90.514 66h.663z"/>
            <path fill="#DDD" d="M10 51.622h186.363v1H10z"/>
            <path fill="#353D45" d="M148.241 42.367h-2.189v-4.802h2.139c.835 0 1.346.504 1.346 1.224 0 .605-.403 1.008-.842 1.102.511.079.936.604.936 1.18 0 .77-.511 1.296-1.39 1.296zm-.151-2.721c.54 0 .828-.331.828-.77 0-.433-.288-.778-.828-.778h-1.44v1.548h1.44zm.029 2.189c.561 0 .893-.317.893-.828 0-.44-.303-.828-.893-.828h-1.469v1.656h1.469zm5.287.532h-.54v-.396c-.288.317-.684.483-1.152.483-.59 0-1.216-.396-1.216-1.152 0-.778.626-1.145 1.216-1.145.476 0 .872.151 1.152.475v-.626c0-.468-.374-.735-.878-.735-.418 0-.756.152-1.066.483l-.252-.375c.375-.388.821-.576 1.39-.576.734 0 1.346.332 1.346 1.174v2.39zm-1.497-.302c.381 0 .749-.144.957-.432v-.655c-.208-.288-.576-.432-.957-.432-.504 0-.857.317-.857.763 0 .44.353.756.857.756zm3.588.389c.317 0 .511-.094.648-.223l-.158-.404a.521.521 0 0 1-.368.144c-.237 0-.352-.187-.352-.446v-2.16h.705v-.475h-.705v-.95h-.54v.95h-.576v.475h.576v2.275c0 .519.259.814.77.814zm2.25 0c.316 0 .51-.094.647-.223l-.158-.404a.521.521 0 0 1-.367.144c-.238 0-.353-.187-.353-.446v-2.16h.705v-.475h-.705v-.95h-.54v.95h-.576v.475h.576v2.275c0 .519.259.814.77.814zm2.94 0c-1.03 0-1.772-.742-1.772-1.83 0-1.007.72-1.82 1.714-1.82 1.051 0 1.67.82 1.67 1.864v.137h-2.815c.043.655.504 1.202 1.253 1.202.396 0 .8-.158 1.073-.439l.259.353c-.346.346-.814.533-1.382.533zm1.08-2.045c-.008-.518-.353-1.16-1.145-1.16-.742 0-1.109.627-1.138 1.16h2.283zm2.076 1.958v-2.462c.158-.28.612-.554.943-.554.087 0 .151.007.216.021v-.554c-.475 0-.878.266-1.16.633v-.561h-.54v3.477h.54zm1.774 1.361c.1.029.28.05.396.05.46-.007.813-.201 1.022-.705l1.743-4.183h-.59l-1.153 2.85-1.159-2.85h-.583l1.454 3.513-.23.526c-.123.288-.28.367-.519.367a.828.828 0 0 1-.295-.057l-.086.49zm8.696-1.36v-.533h-2.232v-4.27h-.598v4.802h2.83zm2.371.086c-1.03 0-1.77-.742-1.77-1.83 0-1.007.72-1.82 1.713-1.82 1.051 0 1.67.82 1.67 1.864v.137h-2.815c.043.655.504 1.202 1.253 1.202.396 0 .799-.158 1.073-.439l.259.353c-.346.346-.814.533-1.383.533zm1.08-2.045c-.007-.518-.352-1.16-1.144-1.16-.742 0-1.11.627-1.138 1.16h2.282zm3.056 1.958l1.447-3.477h-.59l-1.152 2.85-1.16-2.85h-.583l1.448 3.477h.59zm3.71.087c-1.029 0-1.77-.742-1.77-1.83 0-1.007.72-1.82 1.713-1.82 1.051 0 1.67.82 1.67 1.864v.137h-2.815c.043.655.504 1.202 1.253 1.202.396 0 .8-.158 1.073-.439l.26.353c-.347.346-.815.533-1.383.533zm1.08-2.045c-.007-.518-.352-1.16-1.144-1.16-.742 0-1.109.627-1.138 1.16h2.283zm2.077 1.958v-4.802h-.54v4.802h.54zm6.054 0v-.532h-2.232v-4.27h-.598v4.802h2.83zm2.32.087c-1.058 0-1.72-.821-1.72-1.83 0-1.007.662-1.82 1.72-1.82 1.06 0 1.721.813 1.721 1.82 0 1.009-.662 1.83-1.72 1.83zm0-.483c.742 0 1.153-.633 1.153-1.346 0-.706-.41-1.34-1.152-1.34s-1.16.634-1.16 1.34c0 .713.418 1.346 1.16 1.346zm6.282.396l1.109-3.477h-.562l-.85 2.772-.914-2.772h-.46l-.915 2.772-.85-2.772h-.561l1.108 3.477h.54l.908-2.793.907 2.793h.54zM11.937 42.08c-.612 0-1.03-.231-1.332-.577l.302-.446c.245.288.533.49 1.03.49.972 0 1.353-.973 1.353-1.88 0-.065 0-.13-.007-.194-.209.331-.741.749-1.353.749-.864 0-1.577-.512-1.577-1.534 0-.828.633-1.57 1.677-1.57 1.347 0 1.858 1.174 1.858 2.484 0 1.296-.605 2.477-1.951 2.477zm.13-2.377c.475 0 .943-.288 1.195-.713-.05-.597-.368-1.339-1.203-1.339-.734 0-1.101.562-1.101 1.015 0 .706.49 1.037 1.108 1.037zm3.149-.439a.4.4 0 0 0 .396-.396.4.4 0 0 0-.396-.396.4.4 0 0 0-.396.396.4.4 0 0 0 .396.396zm0 2.808a.4.4 0 0 0 .396-.396.4.4 0 0 0-.396-.396.4.4 0 0 0-.396.396.4.4 0 0 0 .396.396zm3.127.014c.965 0 1.707-.604 1.707-1.584 0-.986-.728-1.533-1.527-1.533-.482 0-.893.201-1.123.432v-1.67h2.34v-.533h-2.938v2.592l.44.15a1.505 1.505 0 0 1 1.108-.453c.648 0 1.102.403 1.102 1.037 0 .583-.454 1.03-1.109 1.03-.59 0-1.008-.23-1.325-.634l-.367.396c.36.475.879.77 1.692.77zM22.435 42v-4.802h-.525l-1.203 1.238.36.367.77-.813V42h.598zm1.522-2.736a.4.4 0 0 0 .396-.396.4.4 0 0 0-.396-.396.4.4 0 0 0-.396.396.4.4 0 0 0 .396.396zm0 2.808a.4.4 0 0 0 .396-.396.4.4 0 0 0-.396-.396.4.4 0 0 0-.396.396.4.4 0 0 0 .396.396zm2.876.014c1.058 0 1.7-.583 1.7-1.382 0-.77-.67-1.145-1.11-1.18.454-.08 1.037-.426 1.037-1.117 0-.813-.705-1.281-1.627-1.281-.742 0-1.296.324-1.642.741l.332.375c.352-.382.741-.584 1.267-.584.583 0 1.073.288 1.073.821 0 .555-.512.792-1.116.792-.195 0-.418 0-.497-.007v.547c.072-.007.295-.007.497-.007.705 0 1.195.252 1.195.85 0 .554-.425.9-1.123.9-.57 0-1.059-.26-1.34-.634l-.352.374c.295.432.892.792 1.706.792zm4.445 0c-1.34 0-1.85-1.173-1.85-2.476 0-1.304.605-2.484 1.95-2.484.62 0 1.038.237 1.333.576l-.302.446c-.245-.288-.526-.49-1.03-.49-.929 0-1.354.944-1.354 1.887 0 .065 0 .122.008.187.208-.331.741-.749 1.36-.749.864 0 1.57.511 1.57 1.534 0 .835-.634 1.57-1.685 1.57zm-.021-.532c.741 0 1.101-.555 1.101-1.016 0-.705-.49-1.036-1.109-1.036-.475 0-.936.295-1.202.72.058.597.374 1.332 1.21 1.332zM40.11 42h-.684l-.425-1.066h-2.39L36.187 42h-.684l1.93-4.802h.741L40.111 42zm-1.289-1.598l-1.015-2.585-1.023 2.585h2.038zM45.572 42v-4.802h-.858l-1.497 3.614-1.49-3.614h-.857V42h.597v-3.953L43.094 42h.245l1.635-3.953V42h.597zm5.63.144v-5.09h-.395v5.09h.396zM59.15 42v-4.802h-.857l-1.498 3.614-1.49-3.614h-.857V42h.598v-3.953L56.673 42h.245l1.634-3.953V42h.598zm3.948 0h-.54v-.396c-.288.317-.684.482-1.152.482-.59 0-1.217-.396-1.217-1.152 0-.777.627-1.144 1.217-1.144.475 0 .871.15 1.152.475v-.627c0-.468-.374-.734-.878-.734-.418 0-.756.151-1.066.482l-.252-.374c.374-.389.82-.576 1.39-.576.734 0 1.346.331 1.346 1.174V42zm-1.498-.302c.382 0 .75-.144.958-.432v-.656c-.209-.288-.576-.432-.958-.432-.504 0-.856.317-.856.764 0 .439.352.756.856.756zm2.516 1.663c.1.029.28.05.396.05.46-.007.814-.201 1.022-.705l1.743-4.184h-.59l-1.153 2.852-1.159-2.852h-.583l1.454 3.514-.23.526c-.122.288-.28.367-.518.367a.828.828 0 0 1-.296-.058l-.086.49zm7.22-1.275c1.058 0 1.7-.583 1.7-1.382 0-.77-.67-1.145-1.11-1.18.454-.08 1.037-.426 1.037-1.117 0-.813-.705-1.281-1.627-1.281-.742 0-1.296.324-1.642.741l.332.375c.352-.382.741-.584 1.267-.584.583 0 1.073.288 1.073.821 0 .555-.512.792-1.116.792-.195 0-.418 0-.497-.007v.547c.072-.007.295-.007.497-.007.705 0 1.195.252 1.195.85 0 .554-.425.9-1.123.9-.57 0-1.059-.26-1.34-.634l-.352.374c.295.432.892.792 1.706.792zM75.443 42v-4.802h-.526l-1.202 1.238.36.367.77-.813V42h.598zm1.96-.173c0-.345-.215-.547-.453-.547a.386.386 0 0 0-.381.389c0 .216.144.367.345.367a.334.334 0 0 0 .101-.014c-.029.237-.238.518-.468.67l.266.222c.332-.237.59-.648.59-1.087zm6.198.173v-.533h-2.354c1.34-1.058 2.333-1.951 2.333-2.93 0-.958-.814-1.411-1.613-1.411-.677 0-1.303.273-1.67.756l.367.381c.28-.36.727-.605 1.303-.605.497 0 1 .267 1 .879 0 .828-.935 1.627-2.663 2.988V42H83.6zm2.883.086c-1.317 0-1.836-1.317-1.836-2.484 0-1.173.519-2.476 1.836-2.476 1.31 0 1.836 1.303 1.836 2.476 0 1.167-.525 2.484-1.836 2.484zm0-.532c.915 0 1.224-.994 1.224-1.952 0-.957-.31-1.944-1.224-1.944-.914 0-1.224.987-1.224 1.944 0 .958.31 1.952 1.224 1.952zM90.7 42v-4.802h-.526l-1.202 1.238.36.367.77-.813V42h.598zm2.227 0l1.966-4.392v-.41h-3.276v.532h2.585L92.264 42h.662z"/>
            <path fill="#AAC1D8" d="M10 27.541h186.363v1H10z"/>
            <text font-family="ProximaNova-Semibold, Proxima Nova" font-size="8.4" font-weight="500" letter-spacing=".131" transform="translate(10 6)">
                <tspan x="0" y="13" fill="#2A2E34">Date</tspan>
            </text>
        </g>
    </g>
</svg>
