<svg xmlns="http://www.w3.org/2000/svg" xmlns:xlink="http://www.w3.org/1999/xlink" width="198" height="133" viewBox="0 0 198 133">
    <defs>
        <rect id="a" width="196" height="131" rx="2"/>
    </defs>
    <g fill="none" fill-rule="evenodd">
        <g transform="translate(1 1)">
            <use fill="#FFF" xlink:href="#a"/>
            <rect width="197" height="132" x="-.5" y="-.5" stroke="#D8D8D8" rx="2"/>
        </g>
        <path fill="#DDD" d="M11 100.786h186.367v1H11z"/>
        <path fill="#353D45" d="M150.177 91.53v-.532h-2.354c1.339-1.059 2.333-1.951 2.333-2.93 0-.958-.814-1.412-1.613-1.412-.677 0-1.303.274-1.67.756l.367.382c.28-.36.727-.605 1.303-.605.497 0 1 .266 1 .878 0 .828-.935 1.628-2.663 2.988v.476h3.297zm3.79 0h-.597v-1.216h-2.283v-.497l2.06-3.089h.82v3.06h.677v.526h-.677v1.217zm-.597-1.742v-2.505l-1.685 2.505h1.685zm2.465 1.815a.4.4 0 0 0 .396-.396.4.4 0 0 0-.396-.396.4.4 0 0 0-.396.396.4.4 0 0 0 .396.396zm2.278-.072v-4.803h-.526l-1.202 1.239.36.367.77-.814v4.01h.598zM12.937 92.08c-.612 0-1.03-.231-1.332-.577l.302-.446c.245.288.533.49 1.03.49.972 0 1.353-.973 1.353-1.88 0-.065 0-.13-.007-.194-.209.331-.741.749-1.353.749-.864 0-1.577-.512-1.577-1.534 0-.828.633-1.57 1.677-1.57 1.347 0 1.858 1.174 1.858 2.484 0 1.296-.605 2.477-1.951 2.477zm.13-2.377c.475 0 .943-.288 1.195-.713-.05-.597-.368-1.339-1.203-1.339-.734 0-1.101.562-1.101 1.015 0 .706.49 1.037 1.108 1.037zm3.149-.439a.4.4 0 0 0 .396-.396.4.4 0 0 0-.396-.396.4.4 0 0 0-.396.396.4.4 0 0 0 .396.396zm0 2.808a.4.4 0 0 0 .396-.396.4.4 0 0 0-.396-.396.4.4 0 0 0-.396.396.4.4 0 0 0 .396.396zm3.127.014c.965 0 1.707-.604 1.707-1.584 0-.986-.728-1.533-1.527-1.533-.482 0-.893.201-1.123.432v-1.67h2.34v-.533h-2.938v2.592l.44.15a1.505 1.505 0 0 1 1.108-.453c.648 0 1.102.403 1.102 1.037 0 .583-.454 1.03-1.109 1.03-.59 0-1.008-.23-1.325-.634l-.367.396c.36.475.879.77 1.692.77zM23.435 92v-4.802h-.525l-1.203 1.238.36.367.77-.813V92h.598zm1.522-2.736a.4.4 0 0 0 .396-.396.4.4 0 0 0-.396-.396.4.4 0 0 0-.396.396.4.4 0 0 0 .396.396zm0 2.808a.4.4 0 0 0 .396-.396.4.4 0 0 0-.396-.396.4.4 0 0 0-.396.396.4.4 0 0 0 .396.396zm2.876.014c1.058 0 1.7-.583 1.7-1.382 0-.77-.67-1.145-1.11-1.18.454-.08 1.037-.426 1.037-1.117 0-.813-.705-1.281-1.627-1.281-.742 0-1.296.324-1.642.741l.332.375c.352-.382.741-.584 1.267-.584.583 0 1.073.288 1.073.821 0 .555-.512.792-1.116.792-.195 0-.418 0-.497-.007v.547c.072-.007.295-.007.497-.007.705 0 1.195.252 1.195.85 0 .554-.425.9-1.123.9-.57 0-1.059-.26-1.34-.634l-.352.374c.295.432.892.792 1.706.792zm4.445 0c-1.34 0-1.85-1.173-1.85-2.476 0-1.304.605-2.484 1.95-2.484.62 0 1.038.237 1.333.576l-.302.446c-.245-.288-.526-.49-1.03-.49-.929 0-1.354.944-1.354 1.887 0 .065 0 .122.008.187.208-.331.741-.749 1.36-.749.864 0 1.57.511 1.57 1.534 0 .835-.634 1.57-1.685 1.57zm-.021-.532c.741 0 1.101-.555 1.101-1.016 0-.705-.49-1.036-1.109-1.036-.475 0-.936.295-1.202.72.058.597.374 1.332 1.21 1.332zM41.11 92h-.684l-.425-1.066h-2.39L37.187 92h-.684l1.93-4.802h.741L41.111 92zm-1.289-1.598l-1.015-2.585-1.023 2.585h2.038zM46.572 92v-4.802h-.858l-1.497 3.614-1.49-3.614h-.857V92h.597v-3.953L44.094 92h.245l1.635-3.953V92h.597zm5.63.144v-5.09h-.395v5.09h.396zm4.017-.058c.856 0 1.526-.49 1.526-1.533v-3.355h-.598v3.348c0 .597-.374 1.008-.964 1.008-.418 0-.699-.224-.908-.476l-.31.454c.332.389.742.554 1.254.554zM61.866 92v-3.478h-.54v2.556a1.33 1.33 0 0 1-1.03.526c-.468 0-.777-.18-.777-.792v-2.29h-.54v2.456c0 .756.381 1.108 1.109 1.108.518 0 .972-.273 1.238-.576V92h.54zm4.1 0v-2.44c0-.757-.382-1.124-1.11-1.124-.518 0-.993.302-1.238.59v-.504h-.54V92h.54v-2.542c.202-.28.605-.54 1.03-.54.468 0 .778.195.778.807V92h.54zm2.782.086c-1.03 0-1.772-.741-1.772-1.828 0-1.008.72-1.822 1.714-1.822 1.051 0 1.67.82 1.67 1.865v.137h-2.815c.043.655.504 1.202 1.253 1.202.396 0 .8-.158 1.073-.44l.259.354c-.346.345-.814.532-1.382.532zm1.08-2.044c-.008-.519-.353-1.16-1.145-1.16-.742 0-1.109.627-1.138 1.16h2.283zM76.5 92v-.533h-2.354c1.34-1.058 2.333-1.951 2.333-2.93 0-.958-.814-1.411-1.613-1.411-.677 0-1.303.273-1.67.756l.367.381c.28-.36.727-.605 1.303-.605.497 0 1 .267 1 .879 0 .828-.935 1.627-2.663 2.988V92H76.5zm1.947-.173c0-.345-.216-.547-.454-.547a.386.386 0 0 0-.381.389c0 .216.144.367.345.367a.334.334 0 0 0 .101-.014c-.029.237-.237.518-.468.67l.267.222c.33-.237.59-.648.59-1.087zm6.198.173v-.533H82.29c1.34-1.058 2.333-1.951 2.333-2.93 0-.958-.814-1.411-1.613-1.411-.677 0-1.303.273-1.67.756l.367.381c.28-.36.727-.605 1.303-.605.497 0 1.001.267 1.001.879 0 .828-.936 1.627-2.664 2.988V92h3.298zm2.882.086c-1.317 0-1.836-1.317-1.836-2.484 0-1.173.519-2.476 1.836-2.476 1.31 0 1.836 1.303 1.836 2.476 0 1.167-.525 2.484-1.836 2.484zm0-.532c.915 0 1.224-.994 1.224-1.952 0-.957-.31-1.944-1.224-1.944-.914 0-1.224.987-1.224 1.944 0 .958.31 1.952 1.224 1.952zm4.215.446v-4.802h-.526l-1.202 1.238.36.367.77-.813V92h.598zm2.228 0l1.965-4.392v-.41H92.66v.532h2.585L93.307 92h.663z"/>
        <path fill="#DDD" d="M11 124.786h186.367v1H11z"/>
        <path fill="#353D45" d="M150.177 115.53v-.532h-2.354c1.339-1.059 2.333-1.951 2.333-2.93 0-.958-.814-1.412-1.613-1.412-.677 0-1.303.274-1.67.756l.367.382c.28-.36.727-.605 1.303-.605.497 0 1 .266 1 .878 0 .828-.935 1.628-2.663 2.988v.476h3.297zm3.79 0h-.597v-1.216h-2.283v-.497l2.06-3.089h.82v3.06h.677v.526h-.677v1.217zm-.597-1.742v-2.505l-1.685 2.505h1.685zm2.465 1.815a.4.4 0 0 0 .396-.396.4.4 0 0 0-.396-.396.4.4 0 0 0-.396.396.4.4 0 0 0 .396.396zm2.278-.072v-4.803h-.526l-1.202 1.239.36.367.77-.814v4.01h.598zM12.937 116.08c-.612 0-1.03-.231-1.332-.577l.302-.446c.245.288.533.49 1.03.49.972 0 1.353-.973 1.353-1.88 0-.065 0-.13-.007-.194-.209.331-.741.749-1.353.749-.864 0-1.577-.512-1.577-1.534 0-.828.633-1.57 1.677-1.57 1.347 0 1.858 1.174 1.858 2.484 0 1.296-.605 2.477-1.951 2.477zm.13-2.377c.475 0 .943-.288 1.195-.713-.05-.597-.368-1.339-1.203-1.339-.734 0-1.101.562-1.101 1.015 0 .706.49 1.037 1.108 1.037zm3.149-.439a.4.4 0 0 0 .396-.396.4.4 0 0 0-.396-.396.4.4 0 0 0-.396.396.4.4 0 0 0 .396.396zm0 2.808a.4.4 0 0 0 .396-.396.4.4 0 0 0-.396-.396.4.4 0 0 0-.396.396.4.4 0 0 0 .396.396zm3.127.014c.965 0 1.707-.604 1.707-1.584 0-.986-.728-1.533-1.527-1.533-.482 0-.893.201-1.123.432v-1.67h2.34v-.533h-2.938v2.592l.44.15a1.505 1.505 0 0 1 1.108-.453c.648 0 1.102.403 1.102 1.037 0 .583-.454 1.03-1.109 1.03-.59 0-1.008-.23-1.325-.634l-.367.396c.36.475.879.77 1.692.77zm4.092-.086v-4.802h-.525l-1.203 1.238.36.367.77-.813V116h.598zm1.522-2.736a.4.4 0 0 0 .396-.396.4.4 0 0 0-.396-.396.4.4 0 0 0-.396.396.4.4 0 0 0 .396.396zm0 2.808a.4.4 0 0 0 .396-.396.4.4 0 0 0-.396-.396.4.4 0 0 0-.396.396.4.4 0 0 0 .396.396zm2.876.014c1.058 0 1.7-.583 1.7-1.382 0-.77-.67-1.145-1.11-1.18.454-.08 1.037-.426 1.037-1.117 0-.813-.705-1.281-1.627-1.281-.742 0-1.296.324-1.642.741l.332.375c.352-.382.741-.584 1.267-.584.583 0 1.073.288 1.073.821 0 .555-.512.792-1.116.792-.195 0-.418 0-.497-.007v.547c.072-.007.295-.007.497-.007.705 0 1.195.252 1.195.85 0 .554-.425.9-1.123.9-.57 0-1.059-.26-1.34-.634l-.352.374c.295.432.892.792 1.706.792zm4.445 0c-1.34 0-1.85-1.173-1.85-2.476 0-1.304.605-2.484 1.95-2.484.62 0 1.038.237 1.333.576l-.302.446c-.245-.288-.526-.49-1.03-.49-.929 0-1.354.944-1.354 1.887 0 .065 0 .122.008.187.208-.331.741-.749 1.36-.749.864 0 1.57.511 1.57 1.534 0 .835-.634 1.57-1.685 1.57zm-.021-.532c.741 0 1.101-.555 1.101-1.016 0-.705-.49-1.036-1.109-1.036-.475 0-.936.295-1.202.72.058.597.374 1.332 1.21 1.332zm8.854.446h-.684l-.425-1.066h-2.39L37.187 116h-.684l1.93-4.802h.741L41.111 116zm-1.289-1.598l-1.015-2.585-1.023 2.585h2.038zm6.75 1.598v-4.802h-.858l-1.497 3.614-1.49-3.614h-.857V116h.597v-3.953L44.094 116h.245l1.635-3.953V116h.597zm5.63.144v-5.09h-.395v5.09h.396zm4.017-.058c.856 0 1.526-.49 1.526-1.533v-3.355h-.598v3.348c0 .597-.374 1.008-.964 1.008-.418 0-.699-.224-.908-.476l-.31.454c.332.389.742.554 1.254.554zm5.647-.086v-3.478h-.54v2.556a1.33 1.33 0 0 1-1.03.526c-.468 0-.777-.18-.777-.792v-2.29h-.54v2.456c0 .756.381 1.108 1.109 1.108.518 0 .972-.273 1.238-.576v.49h.54zm4.1 0v-2.44c0-.757-.382-1.124-1.11-1.124-.518 0-.993.302-1.238.59v-.504h-.54V116h.54v-2.542c.202-.28.605-.54 1.03-.54.468 0 .778.195.778.807V116h.54zm2.782.086c-1.03 0-1.772-.741-1.772-1.828 0-1.008.72-1.822 1.714-1.822 1.051 0 1.67.82 1.67 1.865v.137h-2.815c.043.655.504 1.202 1.253 1.202.396 0 .8-.158 1.073-.44l.259.354c-.346.345-.814.532-1.382.532zm1.08-2.044c-.008-.519-.353-1.16-1.145-1.16-.742 0-1.109.627-1.138 1.16h2.283zM76.5 116v-.533h-2.354c1.34-1.058 2.333-1.951 2.333-2.93 0-.958-.814-1.411-1.613-1.411-.677 0-1.303.273-1.67.756l.367.381c.28-.36.727-.605 1.303-.605.497 0 1 .267 1 .879 0 .828-.935 1.627-2.663 2.988V116H76.5zm1.947-.173c0-.345-.216-.547-.454-.547a.386.386 0 0 0-.381.389c0 .216.144.367.345.367a.334.334 0 0 0 .101-.014c-.029.237-.237.518-.468.67l.267.222c.33-.237.59-.648.59-1.087zm6.198.173v-.533H82.29c1.34-1.058 2.333-1.951 2.333-2.93 0-.958-.814-1.411-1.613-1.411-.677 0-1.303.273-1.67.756l.367.381c.28-.36.727-.605 1.303-.605.497 0 1.001.267 1.001.879 0 .828-.936 1.627-2.664 2.988V116h3.298zm2.882.086c-1.317 0-1.836-1.317-1.836-2.484 0-1.173.519-2.476 1.836-2.476 1.31 0 1.836 1.303 1.836 2.476 0 1.167-.525 2.484-1.836 2.484zm0-.532c.915 0 1.224-.994 1.224-1.952 0-.957-.31-1.944-1.224-1.944-.914 0-1.224.987-1.224 1.944 0 .958.31 1.952 1.224 1.952zm4.215.446v-4.802h-.526l-1.202 1.238.36.367.77-.813V116h.598zm2.228 0l1.965-4.392v-.41H92.66v.532h2.585L93.307 116h.663z"/>
        <path fill="#DDD" d="M11 76.704h186.367v1H11z"/>
        <path fill="#353D45" d="M150.177 67.449v-.533h-2.354c1.339-1.058 2.333-1.951 2.333-2.93 0-.958-.814-1.411-1.613-1.411-.677 0-1.303.273-1.67.756l.367.381c.28-.36.727-.605 1.303-.605.497 0 1 .267 1 .879 0 .828-.935 1.627-2.663 2.988v.475h3.297zm2.595.086c1.058 0 1.7-.583 1.7-1.382 0-.77-.67-1.145-1.11-1.18.454-.08 1.037-.426 1.037-1.117 0-.813-.705-1.281-1.627-1.281-.742 0-1.296.324-1.642.741l.332.375c.352-.382.741-.584 1.267-.584.583 0 1.073.288 1.073.821 0 .555-.512.792-1.116.792-.195 0-.418 0-.497-.007v.547c.072-.007.295-.007.497-.007.705 0 1.195.252 1.195.85 0 .554-.425.9-1.123.9-.57 0-1.059-.26-1.34-.634l-.352.374c.295.432.892.792 1.706.792zm3.055-.014a.4.4 0 0 0 .396-.396.4.4 0 0 0-.396-.396.4.4 0 0 0-.396.396.4.4 0 0 0 .396.396zm2.898.007c-.612 0-1.03-.23-1.332-.576l.302-.446c.245.288.533.49 1.03.49.972 0 1.353-.973 1.353-1.88 0-.065 0-.13-.007-.194-.209.331-.742.749-1.354.749-.864 0-1.576-.512-1.576-1.534 0-.828.633-1.57 1.677-1.57 1.347 0 1.858 1.174 1.858 2.484 0 1.296-.605 2.477-1.951 2.477zm.13-2.376c.474 0 .942-.288 1.194-.713-.05-.597-.367-1.339-1.202-1.339-.734 0-1.102.562-1.102 1.015 0 .706.49 1.037 1.11 1.037zM12.937 67.08c-.612 0-1.03-.231-1.332-.577l.302-.446c.245.288.533.49 1.03.49.972 0 1.353-.973 1.353-1.88 0-.065 0-.13-.007-.194-.209.331-.741.749-1.353.749-.864 0-1.577-.512-1.577-1.534 0-.828.633-1.57 1.677-1.57 1.347 0 1.858 1.174 1.858 2.484 0 1.296-.605 2.477-1.951 2.477zm.13-2.377c.475 0 .943-.288 1.195-.713-.05-.597-.368-1.339-1.203-1.339-.734 0-1.101.562-1.101 1.015 0 .706.49 1.037 1.108 1.037zm3.149-.439a.4.4 0 0 0 .396-.396.4.4 0 0 0-.396-.396.4.4 0 0 0-.396.396.4.4 0 0 0 .396.396zm0 2.808a.4.4 0 0 0 .396-.396.4.4 0 0 0-.396-.396.4.4 0 0 0-.396.396.4.4 0 0 0 .396.396zm3.127.014c.965 0 1.707-.604 1.707-1.584 0-.986-.728-1.533-1.527-1.533-.482 0-.893.201-1.123.432v-1.67h2.34v-.533h-2.938v2.592l.44.15a1.505 1.505 0 0 1 1.108-.453c.648 0 1.102.403 1.102 1.037 0 .583-.454 1.03-1.109 1.03-.59 0-1.008-.23-1.325-.634l-.367.396c.36.475.879.77 1.692.77zM23.435 67v-4.802h-.525l-1.203 1.238.36.367.77-.813V67h.598zm1.522-2.736a.4.4 0 0 0 .396-.396.4.4 0 0 0-.396-.396.4.4 0 0 0-.396.396.4.4 0 0 0 .396.396zm0 2.808a.4.4 0 0 0 .396-.396.4.4 0 0 0-.396-.396.4.4 0 0 0-.396.396.4.4 0 0 0 .396.396zm2.876.014c1.058 0 1.7-.583 1.7-1.382 0-.77-.67-1.145-1.11-1.18.454-.08 1.037-.426 1.037-1.117 0-.813-.705-1.281-1.627-1.281-.742 0-1.296.324-1.642.741l.332.375c.352-.382.741-.584 1.267-.584.583 0 1.073.288 1.073.821 0 .555-.512.792-1.116.792-.195 0-.418 0-.497-.007v.547c.072-.007.295-.007.497-.007.705 0 1.195.252 1.195.85 0 .554-.425.9-1.123.9-.57 0-1.059-.26-1.34-.634l-.352.374c.295.432.892.792 1.706.792zm4.445 0c-1.34 0-1.85-1.173-1.85-2.476 0-1.304.605-2.484 1.95-2.484.62 0 1.038.237 1.333.576l-.302.446c-.245-.288-.526-.49-1.03-.49-.929 0-1.354.944-1.354 1.887 0 .065 0 .122.008.187.208-.331.741-.749 1.36-.749.864 0 1.57.511 1.57 1.534 0 .835-.634 1.57-1.685 1.57zm-.021-.532c.741 0 1.101-.555 1.101-1.016 0-.705-.49-1.036-1.109-1.036-.475 0-.936.295-1.202.72.058.597.374 1.332 1.21 1.332zM41.11 67h-.684l-.425-1.066h-2.39L37.187 67h-.684l1.93-4.802h.741L41.111 67zm-1.289-1.598l-1.015-2.585-1.023 2.585h2.038zM46.572 67v-4.802h-.858l-1.497 3.614-1.49-3.614h-.857V67h.597v-3.953L44.094 67h.245l1.635-3.953V67h.597zm5.63.144v-5.09h-.395v5.09h.396zm4.017-.058c.856 0 1.526-.49 1.526-1.533v-3.355h-.598v3.348c0 .597-.374 1.008-.964 1.008-.418 0-.699-.224-.908-.476l-.31.454c.332.389.742.554 1.254.554zM61.866 67v-3.478h-.54v2.556a1.33 1.33 0 0 1-1.03.526c-.468 0-.777-.18-.777-.792v-2.29h-.54v2.456c0 .756.381 1.108 1.109 1.108.518 0 .972-.273 1.238-.576V67h.54zm4.1 0v-2.44c0-.757-.382-1.124-1.11-1.124-.518 0-.993.302-1.238.59v-.504h-.54V67h.54v-2.542c.202-.28.605-.54 1.03-.54.468 0 .778.195.778.807V67h.54zm2.782.086c-1.03 0-1.772-.741-1.772-1.828 0-1.008.72-1.822 1.714-1.822 1.051 0 1.67.82 1.67 1.865v.137h-2.815c.043.655.504 1.202 1.253 1.202.396 0 .8-.158 1.073-.44l.259.354c-.346.345-.814.532-1.382.532zm1.08-2.044c-.008-.519-.353-1.16-1.145-1.16-.742 0-1.109.627-1.138 1.16h2.283zM74.693 67v-4.802h-.525l-1.203 1.238.36.367.77-.813V67h.598zm1.961-.173c0-.345-.216-.547-.453-.547a.386.386 0 0 0-.382.389c0 .216.144.367.346.367a.334.334 0 0 0 .1-.014c-.028.237-.237.518-.468.67l.267.222c.331-.237.59-.648.59-1.087zm6.198.173v-.533h-2.355c1.34-1.058 2.333-1.951 2.333-2.93 0-.958-.813-1.411-1.613-1.411-.676 0-1.303.273-1.67.756l.367.381c.281-.36.727-.605 1.303-.605.497 0 1.001.267 1.001.879 0 .828-.936 1.627-2.664 2.988V67h3.298zm2.883.086c-1.318 0-1.836-1.317-1.836-2.484 0-1.173.518-2.476 1.836-2.476 1.31 0 1.836 1.303 1.836 2.476 0 1.167-.526 2.484-1.836 2.484zm0-.532c.914 0 1.224-.994 1.224-1.952 0-.957-.31-1.944-1.224-1.944-.915 0-1.224.987-1.224 1.944 0 .958.31 1.952 1.224 1.952zm4.214.446v-4.802h-.525l-1.203 1.238.36.367.77-.813V67h.598zm2.228 0l1.965-4.392v-.41h-3.276v.532h2.585L91.514 67h.663z"/>
        <path fill="#DDD" d="M11 52.622h186.367v1H11z"/>
        <path fill="#353D45" d="M150.177 43.367v-.532h-2.354c1.339-1.059 2.333-1.952 2.333-2.93 0-.958-.814-1.412-1.613-1.412-.677 0-1.303.274-1.67.756l.367.382c.28-.36.727-.605 1.303-.605.497 0 1 .266 1 .878 0 .828-.935 1.627-2.663 2.988v.475h3.297zm2.595.087c1.058 0 1.7-.583 1.7-1.383 0-.77-.67-1.144-1.11-1.18.454-.08 1.037-.425 1.037-1.116 0-.814-.705-1.282-1.627-1.282-.742 0-1.296.324-1.642.742l.332.374c.352-.382.741-.583 1.267-.583.583 0 1.073.288 1.073.82 0 .555-.512.793-1.116.793-.195 0-.418 0-.497-.008v.548c.072-.008.295-.008.497-.008.705 0 1.195.252 1.195.85 0 .554-.425.9-1.123.9-.57 0-1.059-.26-1.34-.634l-.352.375c.295.432.892.792 1.706.792zm3.055-.015a.4.4 0 0 0 .396-.396.4.4 0 0 0-.396-.396.4.4 0 0 0-.396.396.4.4 0 0 0 .396.396zm4.647-.072v-.532h-2.354c1.339-1.059 2.333-1.952 2.333-2.93 0-.958-.814-1.412-1.613-1.412-.677 0-1.303.274-1.67.756l.367.382c.28-.36.727-.605 1.303-.605.497 0 1 .266 1 .878 0 .828-.935 1.627-2.663 2.988v.475h3.297zM12.937 43.08c-.612 0-1.03-.231-1.332-.577l.302-.446c.245.288.533.49 1.03.49.972 0 1.353-.973 1.353-1.88 0-.065 0-.13-.007-.194-.209.331-.741.749-1.353.749-.864 0-1.577-.512-1.577-1.534 0-.828.633-1.57 1.677-1.57 1.347 0 1.858 1.174 1.858 2.484 0 1.296-.605 2.477-1.951 2.477zm.13-2.377c.475 0 .943-.288 1.195-.713-.05-.597-.368-1.339-1.203-1.339-.734 0-1.101.562-1.101 1.015 0 .706.49 1.037 1.108 1.037zm3.149-.439a.4.4 0 0 0 .396-.396.4.4 0 0 0-.396-.396.4.4 0 0 0-.396.396.4.4 0 0 0 .396.396zm0 2.808a.4.4 0 0 0 .396-.396.4.4 0 0 0-.396-.396.4.4 0 0 0-.396.396.4.4 0 0 0 .396.396zm3.127.014c.965 0 1.707-.604 1.707-1.584 0-.986-.728-1.533-1.527-1.533-.482 0-.893.201-1.123.432v-1.67h2.34v-.533h-2.938v2.592l.44.15a1.505 1.505 0 0 1 1.108-.453c.648 0 1.102.403 1.102 1.037 0 .583-.454 1.03-1.109 1.03-.59 0-1.008-.23-1.325-.634l-.367.396c.36.475.879.77 1.692.77zM23.435 43v-4.802h-.525l-1.203 1.238.36.367.77-.813V43h.598zm1.522-2.736a.4.4 0 0 0 .396-.396.4.4 0 0 0-.396-.396.4.4 0 0 0-.396.396.4.4 0 0 0 .396.396zm0 2.808a.4.4 0 0 0 .396-.396.4.4 0 0 0-.396-.396.4.4 0 0 0-.396.396.4.4 0 0 0 .396.396zm2.876.014c1.058 0 1.7-.583 1.7-1.382 0-.77-.67-1.145-1.11-1.18.454-.08 1.037-.426 1.037-1.117 0-.813-.705-1.281-1.627-1.281-.742 0-1.296.324-1.642.741l.332.375c.352-.382.741-.584 1.267-.584.583 0 1.073.288 1.073.821 0 .555-.512.792-1.116.792-.195 0-.418 0-.497-.007v.547c.072-.007.295-.007.497-.007.705 0 1.195.252 1.195.85 0 .554-.425.9-1.123.9-.57 0-1.059-.26-1.34-.634l-.352.374c.295.432.892.792 1.706.792zm4.445 0c-1.34 0-1.85-1.173-1.85-2.476 0-1.304.605-2.484 1.95-2.484.62 0 1.038.237 1.333.576l-.302.446c-.245-.288-.526-.49-1.03-.49-.929 0-1.354.944-1.354 1.887 0 .065 0 .122.008.187.208-.331.741-.749 1.36-.749.864 0 1.57.511 1.57 1.534 0 .835-.634 1.57-1.685 1.57zm-.021-.532c.741 0 1.101-.555 1.101-1.016 0-.705-.49-1.036-1.109-1.036-.475 0-.936.295-1.202.72.058.597.374 1.332 1.21 1.332zM41.11 43h-.684l-.425-1.066h-2.39L37.187 43h-.684l1.93-4.802h.741L41.111 43zm-1.289-1.598l-1.015-2.585-1.023 2.585h2.038zM46.572 43v-4.802h-.858l-1.497 3.614-1.49-3.614h-.857V43h.597v-3.953L44.094 43h.245l1.635-3.953V43h.597zm5.63.144v-5.09h-.395v5.09h.396zM60.15 43v-4.802h-.857l-1.498 3.614-1.49-3.614h-.857V43h.598v-3.953L57.673 43h.245l1.634-3.953V43h.598zm3.948 0h-.54v-.396c-.288.317-.684.482-1.152.482-.59 0-1.217-.396-1.217-1.152 0-.777.627-1.144 1.217-1.144.475 0 .871.15 1.152.475v-.627c0-.468-.374-.734-.878-.734-.418 0-.756.151-1.066.482l-.252-.374c.374-.389.82-.576 1.39-.576.734 0 1.346.331 1.346 1.174V43zm-1.498-.302c.382 0 .75-.144.958-.432v-.656c-.209-.288-.576-.432-.958-.432-.504 0-.856.317-.856.764 0 .439.352.756.856.756zm2.516 1.663c.1.029.28.05.396.05.46-.007.814-.201 1.022-.705l1.743-4.184h-.59l-1.153 2.852-1.159-2.852h-.583l1.454 3.514-.23.526c-.122.288-.28.367-.518.367a.828.828 0 0 1-.296-.058l-.086.49zm7.22-1.275c1.058 0 1.7-.583 1.7-1.382 0-.77-.67-1.145-1.11-1.18.454-.08 1.037-.426 1.037-1.117 0-.813-.705-1.281-1.627-1.281-.742 0-1.296.324-1.642.741l.332.375c.352-.382.741-.584 1.267-.584.583 0 1.073.288 1.073.821 0 .555-.512.792-1.116.792-.195 0-.418 0-.497-.007v.547c.072-.007.295-.007.497-.007.705 0 1.195.252 1.195.85 0 .554-.425.9-1.123.9-.57 0-1.059-.26-1.34-.634l-.352.374c.295.432.892.792 1.706.792zM76.443 43v-4.802h-.526l-1.202 1.238.36.367.77-.813V43h.598zm1.96-.173c0-.345-.215-.547-.453-.547a.386.386 0 0 0-.381.389c0 .216.144.367.345.367a.334.334 0 0 0 .101-.014c-.029.237-.238.518-.468.67l.266.222c.332-.237.59-.648.59-1.087zm6.198.173v-.533h-2.354c1.34-1.058 2.333-1.951 2.333-2.93 0-.958-.814-1.411-1.613-1.411-.677 0-1.303.273-1.67.756l.367.381c.28-.36.727-.605 1.303-.605.497 0 1 .267 1 .879 0 .828-.935 1.627-2.663 2.988V43H84.6zm2.883.086c-1.317 0-1.836-1.317-1.836-2.484 0-1.173.519-2.476 1.836-2.476 1.31 0 1.836 1.303 1.836 2.476 0 1.167-.525 2.484-1.836 2.484zm0-.532c.915 0 1.224-.994 1.224-1.952 0-.957-.31-1.944-1.224-1.944-.914 0-1.224.987-1.224 1.944 0 .958.31 1.952 1.224 1.952zM91.7 43v-4.802h-.526l-1.202 1.238.36.367.77-.813V43h.598zm2.227 0l1.966-4.392v-.41h-3.276v.532h2.585L93.264 43h.662z"/>
        <path fill="#AAC1D8" d="M11 28.541h186.367v1H11z"/>
        <text fill="#2A2E34" font-family="ProximaNova-Semibold, Proxima Nova" font-size="8.4" font-weight="500" letter-spacing=".131" transform="translate(11 7)">
            <tspan x="0" y="13">Date</tspan>
        </text>
        <text fill="#2A2E34" font-family="ProximaNova-Semibold, Proxima Nova" font-size="8.4" font-weight="500" letter-spacing=".131" transform="translate(11 7)">
            <tspan x="135.491" y="10.286">Value</tspan>
        </text>
    </g>
</svg>
