<svg xmlns="http://www.w3.org/2000/svg" width="158" height="158" viewBox="0 0 158 158">
    <g fill="none" fill-rule="evenodd">
        <path fill="#70B9BD" d="M23.139 36.136V24.104c0-.533.427-.965.965-.965h12.032l3.114-11.622a.962.962 0 0 1 1.183-.683l11.622 3.114 6.015-10.42a.962.962 0 0 1 1.32-.353L69.81 9.19 78.316.683a.962.962 0 0 1 1.366 0l8.508 8.508 10.42-6.016a.962.962 0 0 1 1.319.353l6.015 10.42 11.622-3.114a.962.962 0 0 1 1.183.683l3.114 11.622h12.032c.533 0 .965.427.965.965v12.032l11.622 3.114a.962.962 0 0 1 .683 1.183l-3.114 11.622 10.42 6.015a.962.962 0 0 1 .353 1.32l-6.016 10.42 8.508 8.507a.962.962 0 0 1 0 1.366l-8.508 8.508 6.016 10.42a.962.962 0 0 1-.353 1.319l-10.42 6.015 3.114 11.622a.962.962 0 0 1-.683 1.183l-11.622 3.114v12.032a.962.962 0 0 1-.965.965h-12.032l-3.114 11.622a.962.962 0 0 1-1.183.683l-11.622-3.114-6.015 10.42a.962.962 0 0 1-1.32.353l-10.42-6.016-8.507 8.508a.962.962 0 0 1-1.366 0l-8.508-8.508-10.42 6.016a.962.962 0 0 1-1.319-.353l-6.015-10.42-11.622 3.114a.962.962 0 0 1-1.183-.683l-3.114-11.622H24.104a.962.962 0 0 1-.965-.965v-12.032l-11.622-3.114a.962.962 0 0 1-.683-1.183l3.114-11.622-10.42-6.015a.962.962 0 0 1-.353-1.32L9.19 88.19.683 79.684a.962.962 0 0 1 0-1.366l8.508-8.508-6.016-10.42a.962.962 0 0 1 .353-1.319l10.42-6.015-3.114-11.622a.962.962 0 0 1 .683-1.183l11.622-3.114z"/>
        <path fill="#7FCBCF" d="M27.252 38.409V27.188c0-.517.421-.936.936-.936h11.221l2.904-10.839a.937.937 0 0 1 1.146-.66l10.839 2.903 5.61-9.718a.937.937 0 0 1 1.278-.342l9.718 5.61 7.935-7.934a.937.937 0 0 1 1.322 0l7.935 7.935 9.718-5.61a.937.937 0 0 1 1.278.341l5.61 9.718 10.84-2.904a.937.937 0 0 1 1.145.661l2.904 10.84h11.221c.517 0 .936.42.936.935v11.221l10.839 2.904a.937.937 0 0 1 .66 1.146l-2.903 10.839 9.718 5.61c.447.259.599.833.342 1.278l-5.61 9.718 7.934 7.935a.937.937 0 0 1 0 1.322l-7.935 7.935 5.61 9.718a.937.937 0 0 1-.341 1.278l-9.718 5.61 2.904 10.84a.937.937 0 0 1-.661 1.145l-10.84 2.904v11.221a.937.937 0 0 1-.935.936h-11.221l-2.904 10.839a.937.937 0 0 1-1.146.66l-10.839-2.903-5.61 9.718a.937.937 0 0 1-1.278.342l-9.718-5.61-7.935 7.934a.937.937 0 0 1-1.322 0l-7.935-7.935-9.718 5.61a.937.937 0 0 1-1.278-.341l-5.61-9.718-10.84 2.904a.937.937 0 0 1-1.145-.661l-2.904-10.84H28.188a.937.937 0 0 1-.936-.935v-11.221l-10.839-2.904a.937.937 0 0 1-.66-1.146l2.903-10.839-9.718-5.61a.937.937 0 0 1-.342-1.278l5.61-9.718-7.934-7.935a.937.937 0 0 1 0-1.322l7.935-7.935-5.61-9.718a.937.937 0 0 1 .341-1.278l9.718-5.61-2.904-10.84a.937.937 0 0 1 .661-1.145l10.84-2.904z"/>
        <path fill="#292E34" d="M108.494 64.164c1.928-1.36 3.506-.63 3.506 1.621v30.12c0 2.252-1.98 4.095-4.4 4.095H50.4C47.982 100 46 98.157 46 95.905v-30.12c0-2.251 1.578-2.981 3.506-1.62L75.49 82.521c.971.677 2.244 1.01 3.514.995 1.267.015 2.54-.316 3.51-.995l25.98-18.358zM51.219 59.54c-1.9-1.396-1.468-2.54.95-2.54h53.664c2.416 0 2.848 1.144.943 2.54L83.003 77.067c-1.078.796-2.564 1.146-4.004 1.08-1.443.066-2.929-.286-4.007-1.08L51.22 59.54z"/>
    </g>
</svg>
