<svg xmlns="http://www.w3.org/2000/svg" xmlns:xlink="http://www.w3.org/1999/xlink" width="198" height="133" viewBox="0 0 198 133">
    <defs>
        <rect id="a" width="196" height="131" rx="2"/>
    </defs>
    <g fill="none" fill-rule="evenodd">
        <g transform="translate(1 1)">
            <use fill="#FFF" xlink:href="#a"/>
            <rect width="197" height="132" x="-.5" y="-.5" stroke="#D8D8D8" rx="2"/>
        </g>
        <path fill="#23282E" d="M103.25 92.92l12.318-34.167-19.34 30.743a4.053 4.053 0 0 0-.466.742c-.973 1.995-.152 4.398 1.833 5.366 1.986.968 4.384.136 5.357-1.86.132-.268.23-.545.298-.824z"/>
        <path fill="#2E353C" d="M155.007 104H175c-.43-41.494-34.291-75-76-75s-75.57 33.506-76 75h20.001c0-30.846 25.073-55.851 56.003-55.851S155.007 73.154 155.007 104z"/>
        <path fill="#7FCBCF" d="M121.815 52.815c-6.897-3-14.517-4.666-22.528-4.666-31.045 0-56.212 25.005-56.212 55.851H23c.43-41.494 34.419-75 76.283-75 10.542 0 20.584 2.125 29.717 5.966l-7.185 17.85z"/>
    </g>
</svg>
