<svg xmlns="http://www.w3.org/2000/svg" xmlns:xlink="http://www.w3.org/1999/xlink" width="198" height="133" viewBox="0 0 198 133">
    <defs>
        <rect id="a" width="196" height="131" rx="2"/>
        <linearGradient id="b" x1="50%" x2="50%" y1="0%" y2="100%">
            <stop offset="0%" stop-color="#7FCBCF" stop-opacity=".29"/>
            <stop offset="100%" stop-color="#FBFBFB" stop-opacity=".196"/>
        </linearGradient>
    </defs>
    <g fill="none" fill-rule="evenodd">
        <g transform="translate(1 1)">
            <use fill="#FFF" xlink:href="#a"/>
            <rect width="197" height="132" x="-.5" y="-.5" stroke="#D8D8D8" rx="2"/>
        </g>
        <path fill="url(#b)" d="M0 67.675s3.736-1.424 6.352-5c2.615-3.576 4.724-10.05 6.352-10 .298.009 2.268.5 3.176 2.5.05.111.884 10.35 2.268 18.5 1.384 8.149 4.083 11.825 3.63 11.825-.454 0 1.289 1.369 2.268 1.5.98.131 1.751-1.255 2.269-1.825.109-.12 3.464-11.606 5.898-25 2.434-13.395 4.076-29.282 6.352-29.5.586-.057 2.305-2.739 7.26-1.5.369.092 2.721 1 4.536 12 1.815 11 5.045 26.949 8.62 28 .884.26 3.63 1.5 5.445-2.5.12-.266 1.556-8.162 2.268-17 .713-8.839.88-19.975 3.176-20 .461-.005 1.809-1.35 4.537-.5.278.086 3.8 9.548 6.352 20 2.552 10.451 3.981 19.804 7.26 21 .364.133 2.683-1.401 5.444-9 1.51-4.159 3.736-17.022 7.26-27.5 3.523-10.478 7.17-15.61 8.62-15.5.785.059 2.6-1.004 6.805 1.5.444.264 2.995 4.781 4.537 12 1.1 5.15 1.753 15.685 4.537 23 2.784 7.314 3.528 6.013 4.991 7 1.057.713 4.558-1.778 7.713-6 3.155-4.223 6.445-10.738 9.981-10 1.339.279 3.98.145 6.806 3 2.827 2.855 3.264 6.475 5.898 8 1.251.724 4.537 1 6.806.5.701-.155 8.893-16.672 12.703-14.5 1.059.603 2.64 1.971 4.537 5.5.76 1.411.635 11.271 2.723 16 .884 2.003 2.438 4.347 4.083 6 1.645 1.652 4.537 3.5 4.537 3.5v38.5H0v-44.5z" transform="translate(1 1)"/>
        <path stroke="#7FCBCF" stroke-width="2" d="M1 69.5c1.815 0 8.62-5.87 9.528-11 .907-5.13 6.352-6 6.805.63.454 6.63 1.815 29.37 8.167 29.37S35.481 42 36.843 37.63c1.36-4.37 3.176-7 7.259-7s5.444 3.37 6.352 6.87c.907 3.5 2.268 14.5 4.083 21 1.815 6.5 3.176 13.13 7.713 13.13s5.444-18 5.444-18 .908-16 1.362-18c.453-2 1.36-5 4.083-5 2.722 0 3.63 2.87 4.537 5.37s5.444 23.5 6.352 26.5c.907 3 2.722 9.13 4.99 9.13 2.269 0 5.899-8 7.26-14.63 1.36-6.63 4.537-20 5.898-23.5 1.361-3.5 3.176-9.5 4.99-11.5 1.815-2 4.538-2.5 7.714-1.5s4.99 5.26 5.898 8.13c.907 2.87 3.63 20.37 4.083 22.87.454 2.5 1.815 12 7.26 12 5.444 0 6.805-7.37 9.98-11.5 3.177-4.13 5.899-5 9.075-4.5 3.176.5 6.352 6 8.167 8.5 1.814 2.5 4.083 4.26 7.713 3.13s4.99-5.13 6.805-8.13c1.815-3 4.083-7 6.352-7 2.268 0 4.99 3.75 5.898 7 .908 3.25.908 11.5 3.176 16.5 2.269 5 6.352 8 7.713 8"/>
    </g>
</svg>
