<?xml version="1.0" encoding="UTF-8"?>
<svg width="40px" height="31px" viewBox="0 0 40 31" version="1.1" xmlns="http://www.w3.org/2000/svg" xmlns:xlink="http://www.w3.org/1999/xlink">
    <!-- Generator: sketchtool 42 (36781) - http://www.bohemiancoding.com/sketch -->
    <title>8B597730-6E96-4045-B440-90B57639B753</title>
    <desc>Created with sketchtool.</desc>
    <defs>
        <filter x="-50%" y="-50%" width="200%" height="200%" filterUnits="objectBoundingBox" id="filter-1">
            <feOffset dx="0" dy="0" in="SourceAlpha" result="shadowOffsetOuter1"></feOffset>
            <feGaussianBlur stdDeviation="0.5" in="shadowOffsetOuter1" result="shadowBlurOuter1"></feGaussianBlur>
            <feColorMatrix values="0 0 0 0 0   0 0 0 0 0   0 0 0 0 0  0 0 0 0.0533288043 0" type="matrix" in="shadowBlurOuter1" result="shadowMatrixOuter1"></feColorMatrix>
            <feMerge>
                <feMergeNode in="shadowMatrixOuter1"></feMergeNode>
                <feMergeNode in="SourceGraphic"></feMergeNode>
            </feMerge>
        </filter>
        <linearGradient x1="100%" y1="50%" x2="1.10660968%" y2="50%" id="linearGradient-2">
            <stop stop-color="#F5F5F6" offset="0%"></stop>
            <stop stop-color="#D8D8D8" offset="80.194956%"></stop>
            <stop stop-color="#DADADA" offset="100%"></stop>
        </linearGradient>
        <linearGradient x1="98.9417251%" y1="50%" x2="1.95711097%" y2="50%" id="linearGradient-3">
            <stop stop-color="#E6E6E6" offset="0%"></stop>
            <stop stop-color="#F2F2F2" offset="100%"></stop>
        </linearGradient>
    </defs>
    <g id="Visual" stroke="none" stroke-width="1" fill="none" fill-rule="evenodd">
        <g id="Assets" transform="translate(-1626.000000, -108.000000)">
            <g id="mode_logo" transform="translate(1626.000000, 108.000000)">
                <g id="visual" transform="translate(5.070588, 0.000000)">
                    <path d="M0,2.15306175 C0,0.963958579 0.973076677,0 2.15582326,0 L29.2088826,0 C30.3995109,0 31.3647059,0.962702155 31.3647059,2.15306175 L31.3647059,14.8469383 C31.3647059,16.0360414 30.3916292,17 29.2088826,17 L2.15582326,17 C0.965194948,17 0,16.0372978 0,14.8469383 L0,2.15306175 Z" id="bg" fill="#7FCBCF"></path>
                    <g id="switch" filter="url(#filter-1)" transform="translate(3.174452, 3.600000)">
                        <path d="M0,2.27965349 C0,1.28573231 0.813621132,0.48 1.79235419,0.48 L12.6978064,0.48 L12.6978064,9.48 L1.79235419,9.48 C0.802464307,9.48 0,8.68131004 0,7.68034651 L0,2.27965349 Z" id="left" fill="#FEFEFE"></path>
                        <path d="M12.6978064,1.73735619 C12.6978064,0.739226944 13.5069121,-0.0338351149 14.4909158,0.0100459229 L25.02933,0.48 L25.02933,9.48 L14.4909158,9.84740472 C13.5006089,9.88193017 12.6978064,9.11009671 12.6978064,8.1026457 L12.6978064,1.73735619 Z" id="bottom" fill="url(#linearGradient-2)" transform="translate(18.863568, 4.928393) scale(-1, 1) translate(-18.863568, -4.928393) "></path>
                        <path d="M12.6978064,1.86155008 C12.6978064,0.863130401 13.4971255,0.0886330509 14.4893244,0.131931909 L22.4653499,0.48 L22.4653499,9.48 L14.4893244,9.73007626 C13.4998964,9.76109829 12.6978064,8.98979567 12.6978064,7.97844786 L12.6978064,1.86155008 Z" id="top" fill="url(#linearGradient-3)" transform="translate(17.581578, 4.930591) scale(-1, 1) translate(-17.581578, -4.930591) "></path>
                        <circle id="dot" fill="#7FCBCF" cx="7" cy="5" r="2"></circle>
                    </g>
                </g>
                <path d="M0,30.4281768 C0,30.7016575 0.201481482,30.9129834 0.450370372,30.9129834 C0.711111114,30.9129834 0.912592597,30.7016575 0.912592597,30.4281768 L0.912592597,23.9392265 L3.55555557,28.0165746 C3.66222224,28.1781768 3.79259261,28.2651934 3.95851854,28.2651934 C4.12444446,28.2651934 4.24296298,28.1781768 4.34962965,28.0165746 L7.00444448,23.9267956 L7.00444448,30.4157459 C7.00444448,30.6767956 7.21777781,30.9129834 7.47851855,30.9129834 C7.72740744,30.9129834 7.94074078,30.6892265 7.94074078,30.4157459 L7.94074078,22.5966851 C7.94074078,22.3356354 7.72740744,22.1118785 7.47851855,22.1118785 L7.37185189,22.1118785 C7.18222226,22.1118785 7.02814818,22.211326 6.93333337,22.3729282 L3.97037039,27.0469613 L1.00740741,22.3729282 C0.912592597,22.2237569 0.770370374,22.1118785 0.568888892,22.1118785 L0.462222224,22.1118785 C0.213333334,22.1118785 0,22.3356354 0,22.5966851 L0,30.4281768 Z M15.5614815,31 C13.037037,31 11.3422222,28.9240331 11.3422222,26.5248619 L11.3422222,26.5 C11.3422222,24.1008287 13.0607407,22 15.5851852,22 C18.1096297,22 19.8044445,24.0759669 19.8044445,26.4751381 L19.8044445,26.5 C19.8044445,28.8991713 18.0859259,31 15.5614815,31 Z M15.5851852,30.0925414 C17.4814815,30.0925414 18.8325926,28.5013812 18.8325926,26.5248619 L18.8325926,26.5 C18.8325926,24.5234807 17.4577778,22.9074586 15.5614815,22.9074586 C13.6651852,22.9074586 12.3140741,24.4986188 12.3140741,26.4751381 L12.3140741,26.5 C12.3140741,28.4765193 13.6888889,30.0925414 15.5851852,30.0925414 Z M23.2059259,30.3535912 L23.2059259,22.6464088 C23.2059259,22.3729282 23.4192592,22.1491713 23.6681481,22.1491713 L26.0859259,22.1491713 C28.6933333,22.1491713 30.4948148,24.0262431 30.4948148,26.4751381 L30.4948148,26.5 C30.4948148,28.948895 28.6933333,30.8508287 26.0859259,30.8508287 L23.6681481,30.8508287 C23.4192592,30.8508287 23.2059259,30.6270718 23.2059259,30.3535912 Z M24.1422222,29.9433702 L26.0859259,29.9433702 C28.1837037,29.9433702 29.522963,28.4516575 29.522963,26.5248619 L29.522963,26.5 C29.522963,24.5732044 28.1837037,23.0566298 26.0859259,23.0566298 L24.1422222,23.0566298 L24.1422222,29.9433702 Z M34.3585185,30.8508287 L39.5733333,30.8508287 C39.8103704,30.8508287 40,30.6519337 40,30.4033149 C40,30.1546961 39.8103704,29.9558011 39.5733333,29.9558011 L34.8325926,29.9558011 L34.8325926,26.910221 L38.9807407,26.910221 C39.2177778,26.910221 39.4074074,26.711326 39.4074074,26.4627072 C39.4074074,26.2265193 39.2177778,26.0151934 38.9807407,26.0151934 L34.8325926,26.0151934 L34.8325926,23.0441989 L39.5140741,23.0441989 C39.7511111,23.0441989 39.9407407,22.8453039 39.9407407,22.5966851 C39.9407407,22.3480663 39.7511111,22.1491713 39.5140741,22.1491713 L34.3585185,22.1491713 C34.1096296,22.1491713 33.8962963,22.3729282 33.8962963,22.6464088 L33.8962963,30.3535912 C33.8962963,30.6270718 34.1096296,30.8508287 34.3585185,30.8508287 Z" id="MODE" fill="#6D6D6D"></path>
            </g>
        </g>
    </g>
</svg>