<svg xmlns="http://www.w3.org/2000/svg" xmlns:xlink="http://www.w3.org/1999/xlink" width="198" height="133" viewBox="0 0 198 133">
    <defs>
        <rect id="a" width="196" height="131" rx="2"/>
    </defs>
    <g fill="none" fill-rule="evenodd">
        <g transform="translate(1 1)">
            <use fill="#FFF" xlink:href="#a"/>
            <rect width="197" height="132" x="-.5" y="-.5" stroke="#D8D8D8" rx="2"/>
        </g>
        <path fill="#292E34" d="M69.16 79.48c5.96 0 10.16-3.48 10.16-9.04 0-5.44-4.04-8.6-8.52-8.6-2.56 0-4.76 1.04-6.04 2.32v-7.72h12.8v-4.12H60.08v14.92l3.32.96c1.68-1.6 3.56-2.32 5.84-2.32 3.28 0 5.36 1.88 5.36 4.76 0 2.6-2.12 4.68-5.48 4.68-3 0-5.4-1.12-7.2-3.16l-2.68 3.2c2.16 2.56 5.32 4.12 9.92 4.12zm24.785 0c-7.48 0-10.68-7.08-10.68-13.8 0-6.72 3.2-13.76 10.68-13.76 7.48 0 10.68 7.04 10.68 13.76s-3.2 13.8-10.68 13.8zm0-4.16c4.36 0 5.92-4.56 5.92-9.64 0-5.08-1.56-9.6-5.92-9.6-4.36 0-5.92 4.52-5.92 9.6s1.56 9.64 5.92 9.64zm16.825 4.12c1.52 0 2.8-1.28 2.8-2.8 0-1.52-1.28-2.8-2.8-2.8-1.52 0-2.8 1.28-2.8 2.8 0 1.52 1.28 2.8 2.8 2.8zm24.065-.44h-4.68v-6.04h-12.72V69.2l10.96-16.88h6.44v16.52h3.56v4.12h-3.56V79zm-4.68-10.16V56.52l-8.12 12.32h8.12z"/>
    </g>
</svg>
