<svg xmlns="http://www.w3.org/2000/svg" width="20" height="19" viewBox="0 0 20 19">
    <g fill="none" fill-rule="evenodd">
        <path fill="#7DC9CE" d="M10.657 3.121L2.879 10.9a3 3 0 0 0 4.242 4.243L14.9 7.364l-4.242-4.243zm5.657 5.657l-7.778 7.778a5 5 0 0 1-7.072-7.07l7.779-7.779A1 1 0 0 1 10.657.293l7.07 7.071a1 1 0 1 1-1.413 1.414z"/>
        <path fill="#7DC9CE" d="M5 7h11l-1 2H4z"/>
        <path stroke="#7DC9CE" stroke-width="2" d="M17.572 10.965a.624.624 0 0 0 .06-.083l-.054.087zM17 11.94c-.249.428-.494.866-.726 1.3-.143.266-.277.525-.401.774-.55 1.102-.873 1.964-.873 2.287 0 .914.873 1.7 2 1.7s2-.786 2-1.7c0-.323-.323-1.185-.873-2.287a30.798 30.798 0 0 0-.4-.774 43.292 43.292 0 0 0-.727-1.3z"/>
    </g>
</svg>
