<svg xmlns="http://www.w3.org/2000/svg" width="48" height="46" viewBox="0 0 48 46">
    <g fill="none" fill-rule="evenodd">
        <path fill="#292E34" d="M25.576 7.557L6.91 26.388c-2.812 2.837-2.812 7.435 0 10.272a7.156 7.156 0 0 0 10.182 0L35.76 17.829 25.576 7.557zm13.577 13.695L20.485 40.084a11.926 11.926 0 0 1-16.97 0c-4.687-4.728-4.687-12.392 0-17.12L22.182 4.133a2.436 2.436 0 0 1 0-3.424 2.385 2.385 0 0 1 3.394 0l16.971 17.12a2.436 2.436 0 0 1 0 3.423 2.385 2.385 0 0 1-3.394 0z"/>
        <path fill="#292E34" d="M12 16.947h26.4L36 21.79H9.6z"/>
        <path stroke="#292E34" stroke-width="4.8" d="M42.262 26.423a1.444 1.444 0 0 0 .004-.004zM40.8 28.894a104.797 104.797 0 0 0-1.745 3.15 74.583 74.583 0 0 0-.962 1.875C36.773 36.586 36 38.674 36 39.463c0 2.23 2.1 4.137 4.8 4.137 2.7 0 4.8-1.907 4.8-4.137 0-.79-.774-2.879-2.096-5.55-.298-.602-.62-1.228-.962-1.874a104.935 104.935 0 0 0-1.742-3.145z"/>
    </g>
</svg>
