<svg xmlns="http://www.w3.org/2000/svg" width="46" height="24" viewBox="0 0 46 24">
    <g fill="#292E34" fill-rule="evenodd">
        <path d="M41.158 7.2h2.444A2.404 2.404 0 0 1 46 9.598v4.804a2.397 2.397 0 0 1-2.398 2.398h-2.444v2.4c0 2.651-2.155 4.8-4.802 4.8H4.802A4.802 4.802 0 0 1 0 19.2V4.8C0 2.148 2.155 0 4.802 0h31.554a4.802 4.802 0 0 1 4.802 4.8v2.4zM4.842 7.194v9.612A2.4 2.4 0 0 0 7.234 19.2h26.69a2.4 2.4 0 0 0 2.392-2.394V7.194A2.4 2.4 0 0 0 33.924 4.8H7.234a2.4 2.4 0 0 0-2.392 2.394z"/>
        <path d="M7.263 7.2h26.632v9.6H7.263z"/>
    </g>
</svg>
