<svg xmlns="http://www.w3.org/2000/svg" xmlns:xlink="http://www.w3.org/1999/xlink" width="21" height="14" viewBox="0 0 21 14">
    <defs>
        <path id="a" d="M13.968 5.773c1.255-.124 4.808.55 5.682 1.452.24.247.211.671-.04.9a.65.65 0 0 1-.937.035c-.492-.5-3.429-1.015-4.135-1.053-.802-.057-3.868.06-4.437.619a.662.662 0 0 1-.56.226c-.495-.034-.838-.688-.498-1.08.688-.74 3.918-1 4.925-1.1z"/>
    </defs>
    <g fill="none" fill-rule="evenodd">
        <g transform="rotate(37 12.372 11.039)">
            <use fill="#292E34" xlink:href="#a"/>
            <path stroke="#292E34" stroke-width=".2" d="M13.958 5.673l-.435.042c-.208.02-.389.038-.573.058-.493.053-.946.11-1.375.177-1.348.21-2.258.481-2.605.854-.39.45-.024 1.207.563 1.248a.759.759 0 0 0 .643-.26c.43-.422 3.04-.678 4.355-.585 1.09.059 3.689.635 4.07 1.024a.75.75 0 0 0 1.085-.042.738.738 0 0 0 .036-1.034c-.81-.835-4.262-1.63-5.764-1.482z"/>
        </g>
        <path stroke="#292E34" stroke-width="2" d="M2.241 3.13l-.863.437.408.877c.033.072.094.197.181.368.143.28.31.59.502.922A23.007 23.007 0 0 0 4.345 8.53c1.435 1.821 3.003 3.168 4.716 3.83 4.081 1.578 7.741.077 8.746-2.976 1.055-3.203-.63-6.79-4.802-8.036-1.001-.298-2.11-.397-3.308-.324-1.562.094-3.21.473-4.864 1.043-.669.23-1.293.477-1.858.724-.343.15-.593.269-.734.34z"/>
    </g>
</svg>
