<svg xmlns="http://www.w3.org/2000/svg" xmlns:xlink="http://www.w3.org/1999/xlink" width="50" height="34" viewBox="0 0 50 34">
    <defs>
        <path id="a" d="M32.522 13.951c3.014-.299 11.54 1.33 13.638 3.509.574.596.507 1.623-.098 2.175-.549.662-1.65.706-2.247.086-1.182-1.211-8.23-2.453-9.925-2.546-1.924-.137-9.28.145-10.647 1.495-.336.377-.836.609-1.346.548-1.187-.083-2.01-1.663-1.193-2.612 1.65-1.786 9.404-2.416 11.818-2.655z"/>
    </defs>
    <g fill="none" fill-rule="evenodd">
        <g transform="rotate(37 28.994 28.504)">
            <use fill="#292E34" xlink:href="#a"/>
            <path stroke="#292E34" stroke-width=".5" d="M32.498 13.702l-1.045.101c-.498.049-.931.093-1.374.14a69.287 69.287 0 0 0-3.3.429c-3.238.509-5.425 1.163-6.258 2.065-.943 1.093-.059 2.932 1.358 3.03.565.068 1.147-.179 1.55-.63 1.032-1.019 7.292-1.637 10.444-1.412 2.614.142 8.849 1.534 9.764 2.47.698.726 1.973.677 2.618-.1.69-.627.751-1.816.085-2.509-1.945-2.02-10.234-3.941-13.842-3.584z"/>
        </g>
        <path stroke="#292E34" stroke-width="4.8" d="M5.573 7.748L3.514 8.797l.97 2.097c.08.173.225.475.435.887.343.675.744 1.424 1.202 2.23a55.61 55.61 0 0 0 4.5 6.752c3.446 4.4 7.208 7.653 11.32 9.254 9.8 3.816 18.588.186 20.998-7.184C45.465 15.106 41.427 6.45 31.416 3.44c-2.404-.722-5.068-.96-7.944-.785-3.751.229-7.706 1.143-11.678 2.521a59.39 59.39 0 0 0-4.46 1.751 37.3 37.3 0 0 0-1.761.821z"/>
    </g>
</svg>
