<svg xmlns="http://www.w3.org/2000/svg" width="48" height="43" viewBox="0 0 48 43">
    <path fill="#292E34" fill-rule="evenodd" d="M38.4 23.889v4.778a2.394 2.394 0 0 1-2.4 2.389h-2.4c-1.325 0-2.4-1.07-2.4-2.39V14.334a2.394 2.394 0 0 1 2.4-2.389H36c1.325 0 2.4 1.07 2.4 2.39v4.777h4.8V7.167a2.394 2.394 0 0 0-2.4-2.39H7.2c-1.325 0-2.4 1.07-2.4 2.39V19.11h4.8v-4.778a2.394 2.394 0 0 1 2.4-2.389h2.4c1.325 0 2.4 1.07 2.4 2.39v14.333a2.394 2.394 0 0 1-2.4 2.389H12c-1.325 0-2.4-1.07-2.4-2.39V23.89H4.8v11.944a2.394 2.394 0 0 0 2.4 2.39h33.6c1.325 0 2.4-1.07 2.4-2.39V23.89h-4.8zM4.8 0h38.4C45.851 0 48 2.14 48 4.778v33.444C48 40.861 45.851 43 43.2 43H4.8C2.149 43 0 40.86 0 38.222V4.778C0 2.139 2.149 0 4.8 0zM24 23.889c-1.325 0-2.4-1.07-2.4-2.389a2.394 2.394 0 0 1 2.4-2.389c1.325 0 2.4 1.07 2.4 2.389a2.394 2.394 0 0 1-2.4 2.389zm0 7.167c-1.325 0-2.4-1.07-2.4-2.39a2.394 2.394 0 0 1 2.4-2.388c1.325 0 2.4 1.07 2.4 2.389a2.394 2.394 0 0 1-2.4 2.389zm0-14.334c-1.325 0-2.4-1.07-2.4-2.389a2.394 2.394 0 0 1 2.4-2.389c1.325 0 2.4 1.07 2.4 2.39a2.394 2.394 0 0 1-2.4 2.388z"/>
</svg>
