<svg xmlns="http://www.w3.org/2000/svg" width="48" height="38" viewBox="0 0 48 38">
    <g fill="none" fill-rule="evenodd">
        <path fill="#292E34" d="M13.706 28.252V14.457H11.45L7.2 18.469l1.505 1.469 2.412-2.337v10.65h2.59zm13.713-2.375v-2.13h-6.55c3.96-2.793 6.462-5.068 6.462-7.611 0-2.751-2.501-4.261-5.356-4.261-2.058 0-4.138.745-5.444 2.213l1.505 1.593c.93-.993 2.257-1.655 3.983-1.655 1.35 0 2.678.662 2.678 2.11 0 1.985-2.235 3.784-7.967 7.838v1.903h10.69zm7.826-2.127c3.408 0 5.555-1.675 5.555-4.012 0-2.13-1.992-3.227-3.43-3.35 1.527-.249 3.209-1.325 3.209-3.165 0-2.317-2.147-3.723-5.334-3.723-2.456 0-4.249.93-5.378 2.172l1.328 1.51c1.063-.993 2.302-1.531 3.807-1.531 1.66 0 2.987.662 2.987 1.944 0 1.262-1.305 1.82-3.032 1.82-.575 0-1.438 0-1.704-.02v2.171c.222-.02 1.085-.02 1.704-.02 2.103 0 3.276.578 3.276 1.943 0 1.283-1.129 2.11-3.076 2.11-1.572 0-3.143-.641-4.095-1.675l-1.394 1.592c.996 1.241 2.944 2.234 5.577 2.234z"/>
        <rect width="43.2" height="33.2" x="2.4" y="2.4" stroke="#292E34" stroke-width="4.8" rx="9.6"/>
    </g>
</svg>
