<svg xmlns="http://www.w3.org/2000/svg" width="20" height="16" viewBox="0 0 20 16">
    <g fill="none" fill-rule="evenodd">
        <path fill="#FFF" d="M5.711 11.896V6.087h-.94L3 7.777l.627.618 1.005-.984v4.485h1.079zm5.714-1v-.897h-2.73c1.65-1.176 2.693-2.134 2.693-3.205C11.388 5.636 10.346 5 9.156 5c-.857 0-1.724.313-2.268.932l.627.67c.387-.418.94-.696 1.66-.696.562 0 1.115.278 1.115.888 0 .836-.93 1.594-3.32 3.3v.802h4.455zm3.26-.896C16.105 10 17 9.295 17 8.31c0-.896-.83-1.358-1.43-1.41.637-.105 1.338-.557 1.338-1.333 0-.975-.895-1.567-2.223-1.567-1.023 0-1.77.392-2.24.914l.553.636c.443-.418.959-.644 1.586-.644.692 0 1.245.278 1.245.818 0 .531-.544.767-1.263.767-.24 0-.6 0-.71-.01v.915c.092-.008.451-.008.71-.008.876 0 1.364.243 1.364.818 0 .54-.47.888-1.281.888-.655 0-1.31-.27-1.706-.705l-.581.67c.415.523 1.226.941 2.323.941z"/>
        <rect width="18" height="14" x="1" y="1" stroke="#FFF" stroke-width="2" rx="4"/>
    </g>
</svg>
