<svg xmlns="http://www.w3.org/2000/svg" width="48" height="48" viewBox="0 0 48 48">
    <g fill="none" fill-rule="evenodd">
        <circle cx="24" cy="24" r="21.6" stroke="#292E34" stroke-width="4.8"/>
        <path fill="#292E34" stroke="#292E34" stroke-width="2.4" d="M22.803 30.417c3.44-.32 6.997.916 9.391 3.254.656.64.58 1.742-.11 2.335-.627.71-1.884.758-2.566.092a8.116 8.116 0 0 0-5.154-2.22 8.132 8.132 0 0 0-5.979 2.115c-.383.405-.953.653-1.536.589-1.354-.09-2.294-1.785-1.361-2.804 1.883-1.917 4.558-3.104 7.315-3.361z"/>
        <path fill="#292E34" d="M16.1 12.705a2.394 2.394 0 0 0-3.395 0 2.394 2.394 0 0 0 0 3.394l3.249 3.25-3.249 3.248a2.394 2.394 0 0 0 0 3.394c.938.937 2.45.944 3.394 0 0 0 4.846-4.554 5.092-4.8a2.39 2.39 0 0 0 .7-1.843 2.39 2.39 0 0 0-.7-1.842c-.246-.247-5.092-4.8-5.092-4.8zM32.197 12.705a2.394 2.394 0 0 1 3.394 0 2.394 2.394 0 0 1 0 3.394l-3.249 3.25 3.25 3.248c.936.937.943 2.45-.001 3.394a2.394 2.394 0 0 1-3.394 0s-4.845-4.554-5.092-4.8a2.39 2.39 0 0 1-.7-1.843 2.39 2.39 0 0 1 .7-1.842c.247-.247 5.092-4.8 5.092-4.8z"/>
    </g>
</svg>
