<svg xmlns="http://www.w3.org/2000/svg" width="20" height="20" viewBox="0 0 20 20">
    <g fill="none" fill-rule="evenodd">
        <circle cx="10" cy="10" r="9" stroke="#FFF" stroke-width="2"/>
        <path fill="#FFF" stroke="#FFF" d="M9.501 12.674c1.434-.134 2.916.381 3.913 1.356.273.266.242.726-.046.973-.261.295-.785.315-1.069.038a3.381 3.381 0 0 0-2.147-.925 3.388 3.388 0 0 0-2.491.881.778.778 0 0 1-.64.245c-.565-.037-.956-.743-.568-1.168.785-.798 1.9-1.293 3.048-1.4z"/>
        <path fill="#FFF" d="M6.708 5.294a.997.997 0 0 0-1.414 0 .997.997 0 0 0 0 1.414l1.354 1.354-1.354 1.353a.997.997 0 0 0 0 1.415.997.997 0 0 0 1.414 0s2.019-1.898 2.121-2a.996.996 0 0 0 .293-.768.996.996 0 0 0-.293-.768c-.102-.103-2.121-2-2.121-2zM13.415 5.294a.997.997 0 0 1 1.414 0 .997.997 0 0 1 0 1.414l-1.353 1.354 1.354 1.353a.997.997 0 0 1 0 1.415.997.997 0 0 1-1.415 0s-2.018-1.898-2.121-2a.996.996 0 0 1-.292-.768.996.996 0 0 1 .292-.768c.103-.103 2.121-2 2.121-2z"/>
    </g>
</svg>
