<svg xmlns="http://www.w3.org/2000/svg" width="20" height="20" viewBox="0 0 20 20">
    <path fill="#727D8B" fill-rule="evenodd" d="M17 14a2 2 0 1 1 0-4 2 2 0 0 1 0 4zM3 8a1 1 0 0 1 1 1v5a1 1 0 1 1-2 0V9a1 1 0 0 1 1-1zm15 8a1 1 0 0 1 1 1v2a1 1 0 1 1-2 0v-2a1 1 0 0 1 1-1zM3 6a3 3 0 1 1 0-6 3 3 0 0 1 0 6zm0-1a2 2 0 1 0 0-4 2 2 0 0 0 0 4zm7 1h2a1 1 0 1 1 0 2h-2a1 1 0 1 1 0-2zM7 8a1 1 0 1 1 0-2 1 1 0 0 1 0 2zm9 0a1 1 0 1 1 0-2 1 1 0 0 1 0 2zm-4 4a1 1 0 1 1 0-2 1 1 0 0 1 0 2zm-9 6a1 1 0 1 1 0-2 1 1 0 0 1 0 2zm12 0a1 1 0 1 1 0-2 1 1 0 0 1 0 2zM9 2h4a1 1 0 1 1 0 2H9a1 1 0 1 1 0-2zm-3 8h3a1 1 0 1 1 0 2H6a1 1 0 1 1 0-2zm12-6a2 2 0 1 1 0-4 2 2 0 0 1 0 4zm0-1a1 1 0 1 0 0-2 1 1 0 0 0 0 2zm-8 17a3 3 0 1 1 0-6 3 3 0 0 1 0 6zm0-1a2 2 0 1 0 0-4 2 2 0 0 0 0 4z"/>
</svg>
