<svg xmlns="http://www.w3.org/2000/svg" width="48" height="48" viewBox="0 0 48 48">
    <path fill="#292E34" fill-rule="evenodd" d="M40.8 33.6a4.8 4.8 0 1 1 0-9.6 4.8 4.8 0 0 1 0 9.6zM7.2 19.2a2.4 2.4 0 0 1 2.4 2.4v12a2.4 2.4 0 0 1-4.8 0v-12a2.4 2.4 0 0 1 2.4-2.4zm36 19.2a2.4 2.4 0 0 1 2.4 2.4v4.8a2.4 2.4 0 0 1-4.8 0v-4.8a2.4 2.4 0 0 1 2.4-2.4zm-36-24A7.2 7.2 0 1 1 7.2 0a7.2 7.2 0 0 1 0 14.4zm0-2.4a4.8 4.8 0 1 0 0-9.6 4.8 4.8 0 0 0 0 9.6zM24 14.4h4.8a2.4 2.4 0 0 1 0 4.8H24a2.4 2.4 0 0 1 0-4.8zm-7.2 4.8a2.4 2.4 0 1 1 0-4.8 2.4 2.4 0 0 1 0 4.8zm21.6 0a2.4 2.4 0 1 1 0-4.8 2.4 2.4 0 0 1 0 4.8zm-9.6 9.6a2.4 2.4 0 1 1 0-4.8 2.4 2.4 0 0 1 0 4.8zM7.2 43.2a2.4 2.4 0 1 1 0-4.8 2.4 2.4 0 0 1 0 4.8zm28.8 0a2.4 2.4 0 1 1 0-4.8 2.4 2.4 0 0 1 0 4.8zM21.6 4.8h9.6a2.4 2.4 0 0 1 0 4.8h-9.6a2.4 2.4 0 0 1 0-4.8zM14.4 24h7.2a2.4 2.4 0 0 1 0 4.8h-7.2a2.4 2.4 0 0 1 0-4.8zM43.2 9.6a4.8 4.8 0 1 1 0-9.6 4.8 4.8 0 0 1 0 9.6zm0-2.4a2.4 2.4 0 1 0 0-4.8 2.4 2.4 0 0 0 0 4.8zM24 48a7.2 7.2 0 1 1 0-14.4A7.2 7.2 0 0 1 24 48zm0-2.4a4.8 4.8 0 1 0 0-9.6 4.8 4.8 0 0 0 0 9.6z"/>
</svg>
