<svg xmlns="http://www.w3.org/2000/svg" width="50" height="34" viewBox="0 0 50 34">
    <g fill="#292E34" fill-rule="evenodd">
        <path d="M28.46 22.54a5.526 5.526 0 0 1 3.158-.261l6.256-10.105 3.299 1.905-6.316 10.2a6.024 6.024 0 0 1 1.333 3.801c0 3.27-2.558 5.92-5.714 5.92-3.156 0-5.714-2.65-5.714-5.92 0-1.087.283-2.106.777-2.982l-6.455-11.18c-.606.226-1.26.35-1.941.35-.523 0-1.03-.073-1.512-.21l-5.754 9.967a6.015 6.015 0 0 1 1.552 4.055c0 3.27-2.559 5.92-5.715 5.92C2.558 34 0 31.35 0 28.08c0-3.269 2.558-5.92 5.714-5.92.274 0 .543.02.807.06l5.999-10.392a6.036 6.036 0 0 1-1.091-3.48c0-3.27 2.558-5.92 5.714-5.92.262 0 .52.019.773.054l.011-.02.049.029c2.761.418 4.881 2.881 4.881 5.857 0 1.12-.3 2.168-.822 3.062l6.425 11.13z"/>
        <path d="M41.667 17c-4.603 0-8.334-3.806-8.334-8.5S37.064 0 41.667 0C46.269 0 50 3.806 50 8.5S46.269 17 41.667 17zm0-4.857c1.972 0 3.571-1.631 3.571-3.643 0-2.012-1.599-3.643-3.571-3.643-1.973 0-3.572 1.631-3.572 3.643 0 2.012 1.6 3.643 3.572 3.643z"/>
    </g>
</svg>
