<svg xmlns="http://www.w3.org/2000/svg" width="21" height="14" viewBox="0 0 21 14">
    <g fill="#292E34" fill-rule="evenodd">
        <path d="M11.932 9.29a2.362 2.362 0 0 1 1.349-.116l2.583-4.168 1.386.8-2.603 4.2c.345.422.553.964.553 1.556C15.2 12.91 14.125 14 12.8 14s-2.4-1.091-2.4-2.438c0-.434.112-.841.307-1.194l-2.68-4.642a2.362 2.362 0 0 1-1.474.06L4.169 9.914a2.45 2.45 0 0 1 .631 1.648C4.8 12.909 3.725 14 2.4 14S0 12.909 0 11.562c0-1.346 1.075-2.437 2.4-2.437.123 0 .243.01.361.027l2.484-4.3A2.452 2.452 0 0 1 4.8 3.436C4.8 2.091 5.875 1 7.2 1c.088 0 .174.005.26.014l.004-.008.018.01C8.675 1.16 9.6 2.189 9.6 3.438c0 .452-.121.875-.332 1.238l2.664 4.614z"/>
        <path d="M17.5 7a3.5 3.5 0 1 1 0-7 3.5 3.5 0 0 1 0 7zm0-2a1.5 1.5 0 1 0 0-3 1.5 1.5 0 0 0 0 3z"/>
    </g>
</svg>
