<svg xmlns="http://www.w3.org/2000/svg" width="48" height="48" viewBox="0 0 48 48">
    <g fill="none" fill-rule="evenodd">
        <g transform="translate(0 19.608)">
            <ellipse cx="14.118" cy="14.006" stroke="#292E34" stroke-width="2.88" rx="12.678" ry="12.566"/>
            <ellipse cx="14.118" cy="19.608" fill="#292E34" rx="2.824" ry="2.801"/>
            <path fill="#292E34" d="M9.176 10.196l-1.56-1.457a1.156 1.156 0 0 0-1.63 0c-.453.45-.45 1.171 0 1.618l1.56 1.548-1.56 1.548a1.134 1.134 0 0 0 0 1.617c.45.447 1.177.45 1.63 0 0 0 .86-.801 1.56-1.456l1.56 1.456c.454.45 1.18.447 1.631 0 .453-.45.45-1.17 0-1.617l-1.56-1.548 1.56-1.548a1.134 1.134 0 0 0 0-1.617 1.156 1.156 0 0 0-1.63 0s-.86.8-1.56 1.456zM19.059 10.196l-1.56-1.457a1.156 1.156 0 0 0-1.63 0c-.454.45-.451 1.171 0 1.618l1.56 1.548-1.56 1.548a1.134 1.134 0 0 0 0 1.617c.45.447 1.176.45 1.63 0l1.56-1.456c.7.655 1.56 1.456 1.56 1.456.454.45 1.18.447 1.63 0 .454-.45.45-1.17 0-1.617l-1.56-1.548 1.56-1.548a1.134 1.134 0 0 0 0-1.617 1.156 1.156 0 0 0-1.63 0s-.86.8-1.56 1.456z"/>
        </g>
        <path fill="#292E34" d="M35.294 18.207c-3.119 0-5.647-2.508-5.647-5.602 0-3.094 2.528-5.602 5.647-5.602s5.647 2.508 5.647 5.602c0 3.094-2.528 5.602-5.647 5.602zm0-2.8c1.56 0 2.824-1.255 2.824-2.802 0-1.547-1.264-2.801-2.824-2.801-1.56 0-2.823 1.254-2.823 2.801 0 1.547 1.264 2.801 2.823 2.801zM33.882 1.413a1.412 1.412 0 0 1 2.824 0v2.775a1.412 1.412 0 0 1-2.824 0V1.414zm12.682 9.78a1.412 1.412 0 0 1 0 2.824l-2.775-.001a1.412 1.412 0 0 1 0-2.824h2.775zm-4.3-7.5a1.412 1.412 0 0 1 1.997 1.997L42.3 7.65a1.412 1.412 0 0 1-1.997-1.997l1.963-1.962zm-15.465 7.5a1.412 1.412 0 0 1 0 2.824l-2.775-.001a1.412 1.412 0 0 1 0-2.824H26.8zm3.487-5.539a1.412 1.412 0 0 1-1.997 1.997L26.327 5.69a1.412 1.412 0 0 1 1.997-1.997l1.962 1.962zm3.596 15.367a1.412 1.412 0 0 1 2.824 0v2.774a1.412 1.412 0 0 1-2.824 0v-2.774zm6.42-1.467a1.412 1.412 0 0 1 1.997-1.997l1.962 1.962a1.412 1.412 0 0 1-1.997 1.997l-1.961-1.962zM28.29 17.558a1.412 1.412 0 0 1 1.997 1.997l-1.963 1.962a1.412 1.412 0 0 1-1.997-1.997l1.963-1.962z"/>
    </g>
</svg>
