<svg xmlns="http://www.w3.org/2000/svg" width="20" height="20" viewBox="0 0 20 20">
    <g fill="none" fill-rule="evenodd">
        <g transform="translate(0 8.235)">
            <circle cx="5.882" cy="5.882" r="5.282" stroke="#292E34" stroke-width="1.2"/>
            <circle cx="5.882" cy="8.235" r="1.176" fill="#292E34"/>
            <path fill="#292E34" d="M3.824 4.282l-.65-.611a.48.48 0 0 0-.68 0 .48.48 0 0 0 0 .679l.65.65-.65.65a.48.48 0 0 0 0 .68.48.48 0 0 0 .68 0l.65-.612.65.611a.48.48 0 0 0 .679 0 .48.48 0 0 0 0-.679L4.503 5l.65-.65a.48.48 0 0 0 0-.68.48.48 0 0 0-.68 0l-.65.612zM7.941 4.282l-.65-.611a.48.48 0 0 0-.68 0 .48.48 0 0 0 0 .679l.65.65-.65.65a.48.48 0 0 0 0 .68.48.48 0 0 0 .68 0l.65-.612.65.611a.48.48 0 0 0 .68 0 .48.48 0 0 0 0-.679L8.62 5l.65-.65a.48.48 0 0 0 0-.68.48.48 0 0 0-.68 0l-.65.612z"/>
        </g>
        <path fill="#292E34" d="M14.706 7.647a2.353 2.353 0 1 1 0-4.706 2.353 2.353 0 0 1 0 4.706zm0-1.176a1.176 1.176 0 1 0 0-2.353 1.176 1.176 0 0 0 0 2.353zM14.118.594c0-.328.273-.594.588-.594.325 0 .588.27.588.594v1.165a.597.597 0 0 1-.588.594.594.594 0 0 1-.588-.594V.594zm5.288 4.112c.328 0 .594.273.594.588 0 .325-.27.588-.594.588h-1.165a.597.597 0 0 1-.594-.588c0-.325.27-.588.594-.588h1.165zm-1.792-3.151a.597.597 0 0 1 .835-.004c.23.23.225.606-.004.835l-.824.824a.597.597 0 0 1-.835.004.594.594 0 0 1 .004-.835l.824-.824zm-6.443 3.15c.328 0 .594.274.594.59 0 .324-.27.587-.594.587h-1.165a.597.597 0 0 1-.594-.588c0-.325.27-.588.594-.588h1.165zm1.451-2.326a.597.597 0 0 1 .004.835.594.594 0 0 1-.836-.004l-.824-.824a.597.597 0 0 1-.004-.835.594.594 0 0 1 .836.004l.824.824zm1.496 6.45c0-.328.273-.594.588-.594.325 0 .588.27.588.594v1.165a.597.597 0 0 1-.588.594.594.594 0 0 1-.588-.594V8.83zm2.672-.62a.597.597 0 0 1-.004-.835.594.594 0 0 1 .835.004l.824.824a.597.597 0 0 1 .004.836.594.594 0 0 1-.835-.004l-.824-.824zm-5-.831a.597.597 0 0 1 .836-.004c.23.23.225.607-.004.836l-.824.824a.597.597 0 0 1-.836.004.594.594 0 0 1 .004-.836l.824-.824z"/>
    </g>
</svg>
