<svg xmlns="http://www.w3.org/2000/svg" width="29" height="47" viewBox="0 0 29 47">
    <g fill="none" fill-rule="evenodd">
        <path fill="#292E34" d="M16.917 32.6c0-1.325 1.082-2.4 2.416-2.4a2.408 2.408 0 0 1 2.417 2.4c0 3.976-3.246 7.2-7.25 7.2a2.408 2.408 0 0 1-2.417-2.4c0-1.325 1.082-2.4 2.417-2.4a2.408 2.408 0 0 0 2.417-2.4z"/>
        <path stroke="#292E34" stroke-width="4.8" d="M14.5 3.949c.352.642.731 1.34 1.131 2.086a245.62 245.62 0 0 1 4.54 8.878 171.3 171.3 0 0 1 1.977 4.217C24.972 25.388 26.6 30.213 26.6 32.6c0 6.624-5.414 12-12.1 12s-12.1-5.376-12.1-12c0-2.387 1.628-7.212 4.452-13.47a171.3 171.3 0 0 1 1.977-4.217 245.62 245.62 0 0 1 4.54-8.878c.4-.746.779-1.444 1.131-2.086z"/>
    </g>
</svg>
