<svg xmlns="http://www.w3.org/2000/svg" width="17" height="18" viewBox="0 0 17 18">
    <g fill="none" fill-rule="evenodd">
        <path stroke="#292E34" stroke-width="2" d="M5.145 5.987l-3.648.28A.547.547 0 0 0 1 6.803v4.643c0 .275.222.514.497.536l3.764.29 5.877 4.64c.216.17.391.086.391-.19V1.276c0-.275-.172-.358-.385-.184L5.145 5.983v.004z"/>
        <path fill="#292E34" d="M16.976 8.509a5.332 5.332 0 0 1-1.568 4.285c-.309.299-.84.264-1.126-.05-.342-.287-.365-.86-.044-1.171a3.594 3.594 0 0 0 .05-5.08.828.828 0 0 1-.283-.7c.043-.619.86-1.047 1.35-.622.925.86 1.497 2.08 1.62 3.338z"/>
    </g>
</svg>
