<svg xmlns="http://www.w3.org/2000/svg" width="41" height="44" viewBox="0 0 41 44">
    <g fill="none" fill-rule="evenodd">
        <path stroke="#292E34" stroke-width="4.8" d="M12.845 14.844l-8.665.666c-.651.05-1.18.62-1.18 1.273v11.025c0 .653.528 1.223 1.18 1.273l8.94.688L27.078 40.79c.513.405.928.204.928-.45V3.653c0-.652-.41-.848-.914-.436L12.845 14.834v.01z"/>
        <path fill="#292E34" d="M40.943 20.833c.367 3.729-1.048 7.583-3.725 10.177-.733.71-1.994.629-2.672-.12-.813-.68-.868-2.04-.106-2.78 1.488-1.462 2.429-3.487 2.542-5.585.168-2.38-.764-4.788-2.422-6.478-.463-.416-.747-1.034-.673-1.665.102-1.468 2.043-2.486 3.208-1.476 2.194 2.042 3.554 4.94 3.848 7.927z"/>
    </g>
</svg>
