<svg xmlns="http://www.w3.org/2000/svg" width="20" height="20" viewBox="0 0 20 20">
    <g fill="none" fill-rule="evenodd">
        <path fill="#727D8B" d="M14.95 9c-.468-2.282-2.506-4-4.95-4-2.444 0-4.482 1.718-4.95 4 0 .552-.498 1-1.05 1a1 1 0 0 1-.944-1.33C3.684 5.44 6.554 3 10 3c3.446 0 6.316 2.44 6.944 5.67A1 1 0 0 1 16 10c-.552 0-1.05-.448-1.05-1z"/>
        <circle cx="10" cy="10" r="9" stroke="#727D8B" stroke-width="2"/>
        <path fill="#727D8B" d="M8.732 12.196a2 2 0 0 0 2.732-.732c.552-.956.268-4.464.268-4.464S8.552 8.508 8 9.464a2 2 0 0 0 .732 2.732z"/>
    </g>
</svg>
