<svg xmlns="http://www.w3.org/2000/svg" width="48" height="48" viewBox="0 0 48 48">
    <g fill="none" fill-rule="evenodd">
        <path fill="#292E34" d="M35.88 21.6C34.757 16.123 29.865 12 24 12c-5.865 0-10.757 4.123-11.88 9.6 0 1.325-1.195 2.4-2.52 2.4a2.4 2.4 0 0 1-2.266-3.194C8.842 13.056 15.73 7.2 24 7.2s15.158 5.855 16.666 13.606A2.4 2.4 0 0 1 38.4 24c-1.325 0-2.52-1.075-2.52-2.4z"/>
        <circle cx="24" cy="24" r="21.6" stroke="#292E34" stroke-width="4.8"/>
        <path fill="#292E34" d="M22.2 30.718a4.8 4.8 0 0 0 6.557-1.757c1.325-2.296.643-10.714.643-10.714s-7.631 3.618-8.957 5.914a4.8 4.8 0 0 0 1.757 6.557z"/>
    </g>
</svg>
