<svg xmlns="http://www.w3.org/2000/svg" width="48" height="46" viewBox="0 0 48 46">
    <path fill="#292E34" fill-rule="evenodd" d="M36.472 17.944A5.949 5.949 0 0 0 38 13.957c0-3.304-2.686-5.982-6-5.982a5.996 5.996 0 0 0-5.913 4.963L26 12.96l-.06-.015c.04-.322.06-.65.06-.982 0-4.405-3.582-7.975-8-7.975s-8 3.57-8 7.975a7.945 7.945 0 0 0 2.708 5.981h-2.72C6.687 17.944 4 20.622 4 23.926a5.99 5.99 0 0 0 5.988 5.981h28.024c3.301 0 5.988-2.678 5.988-5.981a5.99 5.99 0 0 0-5.988-5.982h-1.54zm5.496-3.179A9.97 9.97 0 0 1 48 23.925c0 5.506-4.473 9.97-9.975 9.97H9.975c-5.51 0-9.975-4.462-9.975-9.97 0-4.209 2.615-7.809 6.305-9.27-.2-.866-.305-1.767-.305-2.692C6 5.356 11.373 0 18 0c3.997 0 7.538 1.948 9.72 4.945A9.987 9.987 0 0 1 32 3.988c5.523 0 10 4.463 10 9.969 0 .272-.01.542-.032.808zM9.6 36.315a2.4 2.4 0 0 1 2.4 2.4V43.6a2.4 2.4 0 0 1-4.8 0v-4.884a2.4 2.4 0 0 1 2.4-2.4zm9.6 0a2.4 2.4 0 0 1 2.4 2.4V43.6a2.4 2.4 0 0 1-4.8 0v-4.884a2.4 2.4 0 0 1 2.4-2.4zm9.6 0a2.4 2.4 0 0 1 2.4 2.4V43.6a2.4 2.4 0 0 1-4.8 0v-4.884a2.4 2.4 0 0 1 2.4-2.4zm9.6 0a2.4 2.4 0 0 1 2.4 2.4V43.6a2.4 2.4 0 0 1-4.8 0v-4.884a2.4 2.4 0 0 1 2.4-2.4z"/>
</svg>
