<svg xmlns="http://www.w3.org/2000/svg" width="20" height="19" viewBox="0 0 20 19">
    <path fill="#292E34" fill-rule="evenodd" d="M15.197 7.412a2.445 2.445 0 0 0 .636-1.647c0-1.365-1.119-2.47-2.5-2.47a2.492 2.492 0 0 0-2.464 2.049l-.036.009-.025-.006c.017-.133.025-.269.025-.406 0-1.82-1.492-3.294-3.333-3.294-1.84 0-3.333 1.475-3.333 3.294a3.27 3.27 0 0 0 1.128 2.47H4.144a2.472 2.472 0 0 0-2.477 2.471c0 1.374 1.109 2.47 2.477 2.47h11.712a2.472 2.472 0 0 0 2.477-2.47c0-1.374-1.109-2.47-2.477-2.47h-.66zm2.29-1.322A4.123 4.123 0 0 1 20 9.882 4.12 4.12 0 0 1 15.88 14H4.12A4.122 4.122 0 0 1 0 9.882a4.12 4.12 0 0 1 2.625-3.838A4.901 4.901 0 0 1 2.5 4.941C2.5 2.212 4.739 0 7.5 0c1.666 0 3.14.805 4.05 2.042a4.192 4.192 0 0 1 1.783-.395c2.302 0 4.167 1.844 4.167 4.118 0 .11-.004.218-.013.325zM4 15a1 1 0 0 1 1 1v2a1 1 0 1 1-2 0v-2a1 1 0 0 1 1-1zm4 0a1 1 0 0 1 1 1v2a1 1 0 1 1-2 0v-2a1 1 0 0 1 1-1zm4 0a1 1 0 0 1 1 1v2a1 1 0 1 1-2 0v-2a1 1 0 0 1 1-1zm4 0a1 1 0 0 1 1 1v2a1 1 0 1 1-2 0v-2a1 1 0 0 1 1-1z"/>
</svg>
