<svg xmlns="http://www.w3.org/2000/svg" width="48" height="48" viewBox="0 0 48 48">
    <path fill="#292E34" fill-rule="evenodd" d="M40 4.01A4.008 4.008 0 0 1 44 0c2.21 0 4 1.794 4 4.01v39.98A4.008 4.008 0 0 1 44 48c-2.21 0-4-1.794-4-4.01V4.01zM26.667 14.662a4 4 0 0 1 4-3.995c2.209 0 4 1.8 4 3.995v29.343a4 4 0 0 1-4 3.995c-2.21 0-4-1.8-4-3.995V14.662zM13.333 25.326a3.999 3.999 0 0 1 4-3.993c2.21 0 4 1.791 4 3.993v18.682a3.999 3.999 0 0 1-4 3.992c-2.209 0-4-1.791-4-3.992V25.326zM0 35.996a4.001 4.001 0 0 1 8 0v8.008a4.001 4.001 0 0 1-8 0v-8.008z"/>
</svg>
