<svg xmlns="http://www.w3.org/2000/svg" width="18" height="18" viewBox="0 0 18 18">
    <path fill="#292E34" fill-rule="evenodd" d="M15 1.504C15 .674 15.666 0 16.5 0c.828 0 1.5.662 1.5 1.504v14.992c0 .83-.666 1.504-1.5 1.504-.828 0-1.5-.662-1.5-1.504V1.504zm-5 3.994C10 4.671 10.666 4 11.5 4c.828 0 1.5.675 1.5 1.498v11.004c0 .827-.666 1.498-1.5 1.498-.828 0-1.5-.675-1.5-1.498V5.498zm-5 4C5 8.67 5.666 8 6.5 8A1.5 1.5 0 0 1 8 9.497v7.006C8 17.33 7.334 18 6.5 18A1.5 1.5 0 0 1 5 16.503V9.497zm-5 4C0 12.672.666 12 1.5 12c.828 0 1.5.665 1.5 1.499V16.5C3 17.33 2.334 18 1.5 18 .672 18 0 17.335 0 16.501V13.5z"/>
</svg>
