<svg xmlns="http://www.w3.org/2000/svg" width="18" height="18" viewBox="0 0 18 18">
    <path fill="#7FCBCF" fill-rule="evenodd" d="M9 13a4 4 0 1 1 0-8 4 4 0 0 1 0 8zm0-2a2 2 0 1 0 0-4 2 2 0 0 0 0 4zM8 1.01a1 1 0 1 1 2 0v1.98a1 1 0 1 1-2 0V1.01zM16.99 8a1 1 0 1 1 0 2h-1.98a1 1 0 1 1 0-2h1.98zm-3.047-5.357a1 1 0 1 1 1.414 1.414l-1.4 1.4a1 1 0 1 1-1.414-1.414l1.4-1.4zM2.991 8a1 1 0 1 1 0 2H1.009a1 1 0 1 1 0-2h1.982zm2.467-3.956a1 1 0 1 1-1.414 1.414L2.643 4.057a1 1 0 1 1 1.414-1.414l1.4 1.4zM8 15.009a1 1 0 1 1 2 0v1.982a1 1 0 1 1-2 0v-1.982zm4.542-1.053a1 1 0 1 1 1.414-1.414l1.401 1.401a1 1 0 1 1-1.414 1.414l-1.4-1.4zm-8.498-1.414a1 1 0 1 1 1.414 1.414l-1.401 1.401a1 1 0 1 1-1.414-1.414l1.4-1.4z"/>
</svg>
