<svg xmlns="http://www.w3.org/2000/svg" width="43" height="43" viewBox="0 0 43 43">
    <path fill="#292E34" fill-rule="evenodd" d="M21.5 31.056a9.556 9.556 0 1 1 0-19.112 9.556 9.556 0 0 1 0 19.112zm0-4.778a4.778 4.778 0 1 0 0-9.556 4.778 4.778 0 0 0 0 9.556zM19.111 2.387A2.382 2.382 0 0 1 21.5 0a2.394 2.394 0 0 1 2.389 2.387v4.782A2.382 2.382 0 0 1 21.5 9.556a2.394 2.394 0 0 1-2.389-2.387V2.387zM40.613 19.11A2.382 2.382 0 0 1 43 21.5a2.394 2.394 0 0 1-2.387 2.389h-4.782a2.382 2.382 0 0 1-2.387-2.389 2.394 2.394 0 0 1 2.387-2.389h4.782zM33.326 6.296a2.382 2.382 0 0 1 3.377.001c.933.933.927 2.451.001 3.377l-3.381 3.382a2.382 2.382 0 0 1-3.377-.002 2.394 2.394 0 0 1-.002-3.377l3.382-3.381zM7.169 19.11A2.382 2.382 0 0 1 9.556 21.5a2.394 2.394 0 0 1-2.387 2.389H2.387A2.382 2.382 0 0 1 0 21.5a2.394 2.394 0 0 1 2.387-2.389h4.782zm5.887-9.434a2.382 2.382 0 0 1-.002 3.377 2.394 2.394 0 0 1-3.377.002L6.296 9.674a2.382 2.382 0 0 1 .001-3.377 2.394 2.394 0 0 1 3.377-.001l3.382 3.381zm6.055 26.154a2.382 2.382 0 0 1 2.389-2.387 2.394 2.394 0 0 1 2.389 2.387v4.782A2.382 2.382 0 0 1 21.5 43a2.394 2.394 0 0 1-2.389-2.387v-4.782zm10.833-2.508a2.382 2.382 0 0 1 .002-3.377 2.394 2.394 0 0 1 3.377-.002l3.381 3.382a2.382 2.382 0 0 1-.001 3.377 2.394 2.394 0 0 1-3.377.001l-3.382-3.381zM9.677 29.944a2.382 2.382 0 0 1 3.377.002c.933.933.927 2.451.002 3.377l-3.382 3.381a2.382 2.382 0 0 1-3.377-.001 2.394 2.394 0 0 1-.001-3.377l3.381-3.382z"/>
</svg>
