<svg xmlns="http://www.w3.org/2000/svg" width="20" height="20" viewBox="0 0 20 20">
    <path fill="#7DC9CE" fill-rule="evenodd" d="M5.847 7.852a2 2 0 0 1 2.006-2.008h4.276a2 2 0 0 1 2.007 2.008v4.279a2 2 0 0 1-2.007 2.007H7.853a2 2 0 0 1-2.006-2.007V7.852zm11.396-6.165c1.703 1.375 2.745 3.53 2.757 5.697a.691.691 0 0 1-.713.633c-.38.034-.75-.29-.759-.673a6.003 6.003 0 0 0-1.446-3.79 5.991 5.991 0 0 0-4.41-2.08c-.397.006-.737-.38-.698-.77-.014-.364.29-.7.657-.703a7.484 7.484 0 0 1 4.612 1.686zM15.45 3.77a4.418 4.418 0 0 1 1.592 3.432c-.006.356-.337.647-.69.63a.674.674 0 0 1-.712-.66 2.978 2.978 0 0 0-2.948-3.007.686.686 0 0 1-.576-.244c-.337-.388-.11-1.118.428-1.157 1.046-.038 2.097.342 2.906 1.006zM2.757 18.313C1.054 16.938.012 14.783 0 12.616a.691.691 0 0 1 .713-.633c.38-.034.75.29.759.673a6.003 6.003 0 0 0 1.446 3.79 5.991 5.991 0 0 0 4.41 2.08c.397-.006.737.38.698.77.014.364-.29.7-.657.703a7.484 7.484 0 0 1-4.612-1.686zm1.592-2.284a4.418 4.418 0 0 1-1.592-3.43c.005-.357.337-.648.69-.631a.674.674 0 0 1 .711.66 2.978 2.978 0 0 0 2.948 3.007c.217-.012.44.07.577.244.337.387.109 1.118-.428 1.156-1.046.039-2.097-.341-2.906-1.006z"/>
</svg>
