<svg xmlns="http://www.w3.org/2000/svg" width="48" height="48" viewBox="0 0 48 48">
    <path fill="#292E34" fill-rule="evenodd" d="M14.033 16.026c0-1.104.893-2 1.998-2h15.896c1.104 0 1.999.894 1.999 2v15.906c0 1.105-.894 2-1.999 2H16.031a1.998 1.998 0 0 1-1.998-2V16.026zM41.383 4.05c4.088 3.3 6.59 8.471 6.617 13.672-.049.866-.847 1.562-1.712 1.52-.91.082-1.8-.697-1.82-1.616-.057-3.29-1.293-6.58-3.47-9.095-2.619-3.08-6.59-4.932-10.585-4.994-.953.017-1.77-.91-1.675-1.846C28.704.816 29.435.01 30.315 0c3.982.04 7.955 1.505 11.068 4.048zM37.08 9.046c2.425 1.991 3.87 5.113 3.82 8.235-.014.856-.81 1.554-1.655 1.513-.884.08-1.723-.695-1.709-1.583.016-1.748-.626-3.506-1.801-4.815-1.31-1.51-3.29-2.383-5.273-2.402-.52.028-1.055-.169-1.385-.587-.809-.93-.261-2.683 1.028-2.775 2.509-.092 5.031.82 6.975 2.414zM6.617 43.951C2.53 40.65.027 35.48 0 30.279c.049-.866.847-1.562 1.712-1.52.91-.082 1.8.697 1.82 1.616.057 3.29 1.293 6.58 3.47 9.095 2.619 3.08 6.59 4.932 10.585 4.994.953-.017 1.77.91 1.675 1.846.034.874-.697 1.68-1.577 1.689-3.982-.04-7.955-1.505-11.068-4.048zm3.82-5.48c-2.426-1.991-3.87-5.113-3.82-8.235.013-.856.81-1.554 1.654-1.513.884-.08 1.723.695 1.71 1.583-.017 1.748.626 3.506 1.8 4.815 1.31 1.51 3.29 2.383 5.273 2.402.52-.028 1.055.169 1.386.587.808.93.26 2.683-1.028 2.775-2.51.092-5.032-.82-6.976-2.414z"/>
</svg>
