<svg id="layer_1" data-name="layer 1" xmlns="http://www.w3.org/2000/svg" width="7.056mm" height="6.703mm" viewBox="0 0 20 19"><defs><style>.cls-1{fill:#292e34;}</style></defs><title>mode_voc_icon</title><path class="cls-1" d="M18.161,7.194H15.014a.933.933,0,0,0-.9-.675.914.914,0,0,0-.217.026l-1.11-1.924a.929.929,0,0,0,0-1.346L14.346.584a.242.242,0,0,0-.419-.241l-1.558,2.7a.908.908,0,0,0-.223-.028.935.935,0,0,0-.9.691H9a.933.933,0,1,0-1.562.9L6.32,6.542a.918.918,0,0,0-.2-.023.934.934,0,1,0,0,1.867.923.923,0,0,0,.224-.028l1.1,1.9a.931.931,0,0,0,.007,1.32L6.328,13.508a.93.93,0,0,0-1.116.679H2.066a.242.242,0,0,0,0,.483H5.218a.935.935,0,0,0,.9.68.953.953,0,0,0,.216-.026l1.1,1.9a.933.933,0,1,0,1.564.914h2.257a.934.934,0,1,0-.012-.483H9.006a.926.926,0,0,0-1.161-.678L6.757,15.094a.929.929,0,0,0,0-1.358l1.11-1.922a.966.966,0,0,0,.236.031.934.934,0,0,0,.9-.686h2.249a.93.93,0,0,0,1.112.661l1.112,1.925a.935.935,0,1,0,.422-.234l-1.109-1.92a.93.93,0,0,0,.009-1.352l1.088-1.884a.922.922,0,0,0,.237.031.935.935,0,0,0,.9-.709h3.138a.242.242,0,1,0,0-.483Zm-6.015,10.23a.451.451,0,1,1-.451.451A.452.452,0,0,1,12.146,17.424Zm-4.047,0a.451.451,0,1,1-.451.451A.452.452,0,0,1,8.1,17.424ZM6.116,14.867a.451.451,0,1,1,.451-.451A.451.451,0,0,1,6.116,14.867Zm7.729-.807a.244.244,0,0,0,.071-.026.229.229,0,0,0,.051-.041.445.445,0,0,1,.151-.028.451.451,0,1,1-.451.451A.447.447,0,0,1,13.845,14.06ZM12.146,3.5a.448.448,0,0,1,.172.035.262.262,0,0,0,.034.024.214.214,0,0,0,.047.02.449.449,0,0,1,.006.74.3.3,0,0,0-.056.023.241.241,0,0,0-.04.029.442.442,0,0,1-.163.031.451.451,0,0,1,0-.9ZM8.1,3.5a.453.453,0,0,1,.443.366.238.238,0,0,0-.017.085.243.243,0,0,0,.017.085A.451.451,0,1,1,8.1,3.5ZM6.116,7.9a.451.451,0,1,1,.451-.451A.451.451,0,0,1,6.116,7.9ZM8.1,11.362a.452.452,0,0,1-.451-.451.446.446,0,0,1,.172-.351.231.231,0,0,0,.056-.024.218.218,0,0,0,.053-.042.45.45,0,0,1,.621.417A.451.451,0,0,1,8.1,11.362Zm4.047,0a.451.451,0,1,1,.451-.451A.451.451,0,0,1,12.146,11.362Zm1.315-3.246-1.091,1.89a.923.923,0,0,0-.224-.028.934.934,0,0,0-.9.7H9a.934.934,0,0,0-.9-.7.921.921,0,0,0-.247.034L6.763,8.125a.93.93,0,0,0-.016-1.359L7.855,4.848A.93.93,0,0,0,9,4.188h2.245a.934.934,0,0,0,.9.693.948.948,0,0,0,.221-.027l1.11,1.921a.931.931,0,0,0-.016,1.341Zm.657-.213a.451.451,0,1,1,.451-.451A.451.451,0,0,1,14.118,7.9Z"/></svg>
