<svg id="layer_1" data-name="layer 1" xmlns="http://www.w3.org/2000/svg" width="7.056mm" height="6.703mm" viewBox="0 0 20 19"><defs><style>.cls-1{fill:#95c7cc;}</style></defs><title>mode_omosa_icon_active</title><path class="cls-1" d="M10.8,4.078V1.8h5.225a.747.747,0,1,0,0-1.493H4.081a.747.747,0,1,0,0,1.493H9.307V4.078a7.474,7.474,0,0,0-6.719,7.427v5.868a.746.746,0,0,0,.746.746h2.24a.747.747,0,1,0,1.493,0h5.972a.747.747,0,1,0,1.493,0h2.24a.747.747,0,0,0,.747-.746V11.505A7.474,7.474,0,0,0,10.8,4.078ZM10.053,13.8A3.747,3.747,0,1,1,13.8,10.053,3.748,3.748,0,0,1,10.053,13.8Z"/><path class="cls-1" d="M10.46,8.778V7.217H9.647V8.778a1.339,1.339,0,1,0,.813,0Z"/></svg>
