<svg xmlns="http://www.w3.org/2000/svg" width="20" height="15" viewBox="0 0 20 15">
    <path fill="#7DC9CE" fill-rule="evenodd" d="M13.333 10.5H4.444a.745.745 0 0 1-.74-.75c0-.414.331-.75.74-.75h8.89c1.636 0 2.962 1.343 2.962 3s-1.326 3-2.963 3c-1.636 0-2.963-1.343-2.963-3 0-.414.332-.75.741-.75.41 0 .74.336.74.75 0 .828.664 1.5 1.482 1.5a1.49 1.49 0 0 0 1.482-1.5c0-.828-.663-1.5-1.482-1.5zM.741 7.5A.745.745 0 0 1 0 6.75C0 6.336.332 6 .74 6h15.556a2.248 2.248 0 0 0 2.208-2.25c0-.616-.247-1.174-.647-1.58a2.19 2.19 0 0 0-1.56-.655c-1.228 0-2.223 1.017-2.224 2.273a.745.745 0 0 1-.74.712.746.746 0 0 1-.74-.712V3.75v-.03C12.628 1.673 14.25.023 16.255 0c1.061 0 1.985.421 2.655 1.104A3.743 3.743 0 0 1 20 3.75v.038a3.747 3.747 0 0 1-3.674 3.711H.741zM2.23 3h7.39a.75.75 0 1 1 0 1.5H2.23a.75.75 0 0 1 0-1.5z"/>
</svg>
