<svg xmlns="http://www.w3.org/2000/svg" width="20" height="16" viewBox="0 0 20 16">
    <path fill="#292E34" fill-rule="evenodd" d="M4 4v1.445C4 5.752 3.777 6 3.502 6a.461.461 0 0 1-.27-.089L.227 3.466c-.23-.166-.296-.51-.147-.767a.53.53 0 0 1 .147-.165L3.232.09c.231-.166.54-.093.688.165.052.09.08.194.08.3V2h4V.555c0-.107.028-.212.08-.301.149-.258.457-.331.688-.165l3.005 2.445a.53.53 0 0 1 .147.165c.15.257.083.6-.147.767L8.768 5.91a.461.461 0 0 1-.27.089C8.223 6 8 5.752 8 5.445V4H4zm9.333 7.5H4.444a.745.745 0 0 1-.74-.75c0-.414.331-.75.74-.75h8.89c1.636 0 2.962 1.343 2.962 3s-1.326 3-2.963 3c-1.636 0-2.963-1.343-2.963-3 0-.414.332-.75.741-.75.41 0 .74.336.74.75 0 .828.664 1.5 1.482 1.5a1.49 1.49 0 0 0 1.482-1.5c0-.828-.663-1.5-1.482-1.5zM.741 8.5A.745.745 0 0 1 0 7.75C0 7.336.332 7 .74 7h15.556a2.248 2.248 0 0 0 2.208-2.25c0-.616-.247-1.174-.647-1.58a2.19 2.19 0 0 0-1.56-.655c-1.228 0-2.223 1.017-2.224 2.273a.745.745 0 0 1-.74.712.746.746 0 0 1-.74-.712V4.75v-.03c.035-2.047 1.657-3.697 3.662-3.72 1.061 0 1.985.421 2.655 1.104A3.743 3.743 0 0 1 20 4.75v.038a3.747 3.747 0 0 1-3.674 3.711H.741z"/>
</svg>
