<svg xmlns="http://www.w3.org/2000/svg" width="48" height="36" viewBox="0 0 48 36">
    <path fill="#292E34" fill-rule="evenodd" d="M32 25.2H10.667a1.789 1.789 0 0 1-1.778-1.8c0-.994.796-1.8 1.778-1.8H32c3.927 0 7.111 3.223 7.111 7.2 0 3.976-3.184 7.2-7.111 7.2-3.927 0-7.111-3.224-7.111-7.2 0-.994.796-1.8 1.778-1.8s1.777.806 1.777 1.8c0 1.988 1.592 3.6 3.556 3.6s3.556-1.612 3.556-3.6-1.592-3.6-3.556-3.6zM1.778 18A1.789 1.789 0 0 1 0 16.2c0-.994.796-1.8 1.778-1.8H39.11A5.395 5.395 0 0 0 44.41 9a5.39 5.39 0 0 0-1.552-3.793 5.258 5.258 0 0 0-3.746-1.571c-2.945 0-5.333 2.442-5.335 5.455A1.788 1.788 0 0 1 32 10.8a1.791 1.791 0 0 1-1.778-1.71V9c0-.025 0-.049.002-.073C30.308 4.016 34.2.054 39.01 0c2.548 0 4.765 1.011 6.372 2.649A8.983 8.983 0 0 1 48 8.999v.092c-.054 4.88-3.967 8.822-8.818 8.907C39.102 18 26.634 18 1.778 18zM5.356 7.2h17.733a1.8 1.8 0 0 1 0 3.6H5.356a1.8 1.8 0 0 1 0-3.6z"/>
</svg>
