<svg xmlns="http://www.w3.org/2000/svg" width="48" height="38" viewBox="0 0 48 38">
    <path fill="#292E34" fill-rule="evenodd" d="M9.6 9.5v3.432c0 .728-.535 1.318-1.194 1.318-.23 0-.455-.073-.648-.211L.546 8.232C-.008 7.837-.167 7.02.191 6.41c.092-.157.213-.29.355-.391L7.758.21c.553-.395 1.293-.22 1.65.391.126.214.192.462.192.716V4.75h9.6V1.318c0-.254.066-.502.191-.716.358-.61 1.098-.786 1.651-.39l7.212 5.807c.142.1.263.234.355.39.358.612.199 1.428-.355 1.823l-7.212 5.807a1.114 1.114 0 0 1-.648.211c-.66 0-1.194-.59-1.194-1.318V9.5H9.6zM32 27.312H10.667a1.78 1.78 0 0 1-1.778-1.78 1.78 1.78 0 0 1 1.778-1.782H32c3.927 0 7.111 3.19 7.111 7.125S35.927 38 32 38c-3.927 0-7.111-3.19-7.111-7.125a1.78 1.78 0 0 1 1.778-1.781 1.78 1.78 0 0 1 1.777 1.78A3.56 3.56 0 0 0 32 34.438a3.56 3.56 0 0 0 3.556-3.562A3.56 3.56 0 0 0 32 27.312zM1.778 20.187A1.78 1.78 0 0 1 0 18.406a1.78 1.78 0 0 1 1.778-1.781H39.11c2.934-.049 5.298-2.423 5.298-5.344a5.306 5.306 0 0 0-5.298-5.308c-2.945 0-5.333 2.417-5.335 5.398a1.78 1.78 0 0 1-3.554 0v-.09c0-.024 0-.048.002-.072.084-4.86 3.977-8.78 8.787-8.834 2.548 0 4.765 1 6.372 2.621A8.842 8.842 0 0 1 48 11.281v.09c-.054 4.83-3.967 8.73-8.818 8.815l-37.404.001z"/>
</svg>
