<svg xmlns="http://www.w3.org/2000/svg" xmlns:xlink="http://www.w3.org/1999/xlink" width="276" height="196" viewBox="0 0 276 196">
    <defs>
        <path id="a" d="M0 6c0-3.314 2.687-6 6.005-6h263.99A6.009 6.009 0 0 1 276 6v184c0 3.314-2.687 6-6.005 6H6.005A6.009 6.009 0 0 1 0 190V6z"/>
        <rect id="b" width="72" height="72" rx="2"/>
    </defs>
    <g fill="none" fill-rule="evenodd">
        <g>
            <use fill="#EDEDED" xlink:href="#a"/>
            <path stroke="#D8D8D8" d="M.5 6C.5 2.962 2.964.5 6.005.5h263.99A5.509 5.509 0 0 1 275.5 6v184c0 3.038-2.464 5.5-5.505 5.5H6.005A5.509 5.509 0 0 1 .5 190V6z"/>
        </g>
        <path fill="#FFF" d="M1 5.99A4.996 4.996 0 0 1 6.009 1H149v194H6.009C3.243 195 1 192.754 1 190.01V5.99z"/>
        <path fill="#353D45" d="M197 120v5.007a5 5 0 0 1-5 4.993c-2.761 0-5-2.237-5-4.993V114h-14.998a5.004 5.004 0 0 1-5.002-5 5 5 0 0 1 5.002-5H187V92h-14.998A5.004 5.004 0 0 1 167 87a5 5 0 0 1 5.002-5H187V69.993A5 5 0 0 1 192 65c2.761 0 5 2.237 5 4.993V76h22c6.627 0 12 5.373 12 11.994V93h43.008v10H231v5.006c0 6.624-5.37 11.994-12 11.994h-22z"/>
        <g transform="translate(39 62)">
            <use fill="#7FCBCF" xlink:href="#b"/>
            <rect width="75" height="75" x="-1.5" y="-1.5" stroke="#353D45" stroke-width="3" rx="2"/>
        </g>
        <path fill="#353D45" d="M74.425 110c7.56 0 7.575 9 7.575 9v3H67v-3s-.134-9 7.425-9zM57 76.6c0-.884.72-1.6 1.607-1.6h6.786c.888 0 1.607.707 1.607 1.6v18.8c0 .884-.72 1.6-1.607 1.6h-6.786A1.597 1.597 0 0 1 57 95.4V76.6zM83 76.6c0-.884.72-1.6 1.607-1.6h6.786c.888 0 1.607.707 1.607 1.6v18.8c0 .884-.72 1.6-1.607 1.6h-6.786A1.597 1.597 0 0 1 83 95.4V76.6z"/>
    </g>
</svg>
