<svg xmlns="http://www.w3.org/2000/svg" width="250" height="196" viewBox="0 0 57 57">
    <g fill="none" fill-rule="evenodd" transform="translate(3 3)">
        <circle cx="25.5" cy="25.5" r="27" stroke="#7FCBCF" stroke-width="3"/>
        <path fill="#292E34" d="M33.02 16.466a2.11 2.11 0 0 0-.705 1.58v3.652h4.227v-3.653c0-.623-.272-1.186-.704-1.574V10.4c0-.768-.631-1.401-1.41-1.401-.783 0-1.408.627-1.408 1.4v6.066zM14 36h4v1.3a.7.7 0 0 1-.697.7h-2.606a.698.698 0 0 1-.697-.7V36zm18.315 0h4v1.3a.7.7 0 0 1-.696.7h-2.607a.698.698 0 0 1-.697-.7V36zm-14.793-5.93c-.778 0-1.409-.646-1.409-1.442 0-.796.631-1.442 1.41-1.442.777 0 1.408.646 1.408 1.442 0 .796-.63 1.442-1.409 1.442zm4.227 0c-.778 0-1.41-.646-1.41-1.442 0-.796.632-1.442 1.41-1.442.778 0 1.409.646 1.409 1.442 0 .796-.631 1.442-1.41 1.442zM38 27.219v2.818h-3.63a.703.703 0 0 1-.695-.697v-1.424c0-.385.31-.697.695-.697H38z"/>
        <path stroke="#292E34" stroke-width="2.8" d="M10.6 24.985v7.286a2.8 2.8 0 0 0 2.793 2.803h22.793a2.804 2.804 0 0 0 2.793-2.803v-7.286a2.8 2.8 0 0 0-2.793-2.804H13.393a2.804 2.804 0 0 0-2.793 2.804z"/>
    </g>
</svg>
