<svg xmlns="http://www.w3.org/2000/svg" xmlns:xlink="http://www.w3.org/1999/xlink" width="56" height="56" viewBox="0 0 56 56">
    <defs>
        <path id="a" d="M18.048 22.047l1.833-1.834a.71.71 0 1 0-1.003-1.003l-1.834 1.833-1.833-1.833a.71.71 0 1 0-1.003 1.003l1.833 1.834-1.833 1.833a.71.71 0 1 0 1.003 1.003l1.833-1.833 1.833 1.833a.71.71 0 1 0 1.004-1.003l-1.833-1.833z"/>
    </defs>
    <g fill="none" fill-rule="evenodd" transform="translate(3 3)">
        <circle cx="25" cy="25" r="26.5" stroke="#C32E18" stroke-width="3"/>
        <path fill="#C32E18" d="M31.75 32.182v-.006h3.175a4.241 4.241 0 0 0 4.242-4.235c0-2.334-1.9-4.235-4.242-4.235h-1.09a4.211 4.211 0 0 0 1.082-2.824 4.243 4.243 0 0 0-4.25-4.235 4.251 4.251 0 0 0-3.735 2.213 5.953 5.953 0 0 0-5.89-5.036c-3.291 0-5.959 2.658-5.959 5.937 0 1.514.569 2.896 1.505 3.945h-1.513a4.241 4.241 0 0 0-4.242 4.235c0 2.335 1.9 4.235 4.242 4.235H18.4v.004h.015a1.415 1.415 0 1 1-.169 2.82h-3.18C11.162 35 8 31.832 8 27.941c0-2.98 1.852-5.53 4.466-6.565a8.469 8.469 0 0 1-.216-1.905c0-4.679 3.806-8.471 8.5-8.471 2.831 0 5.34 1.38 6.884 3.501a7.076 7.076 0 0 1 3.033-.677c3.912 0 7.083 3.16 7.083 7.058 0 .194-.008.385-.023.574A7.067 7.067 0 0 1 42 27.941C42 31.84 38.832 35 34.935 35h-3.091a1.415 1.415 0 1 1-.094-2.818z"/>
        <g transform="translate(8 11)">
            <use fill="#C32E18" xlink:href="#a"/>
            <path stroke="#C32E18" stroke-width=".6" d="M18.472 22.047l1.62-1.621a1.01 1.01 0 1 0-1.428-1.428l-1.62 1.62-1.62-1.62a1.01 1.01 0 1 0-1.428 1.428l1.62 1.62-1.62 1.622a1.01 1.01 0 1 0 1.428 1.428l1.62-1.622 1.621 1.621a1.01 1.01 0 1 0 1.428-1.427l-1.621-1.621z"/>
        </g>
    </g>
</svg>
