<svg xmlns="http://www.w3.org/2000/svg" width="12" height="17" viewBox="0 0 12 17">
    <g fill="none" fill-rule="evenodd" stroke="#292E34">
        <path stroke-width="2" d="M5.621 15.62l-.017.026a.182.182 0 0 1 .017-.026zm.757-.001a.176.176 0 0 1 .017.025l-.017-.025zM6 15.122a49.802 49.802 0 0 1-2.403-3.362 32.45 32.45 0 0 1-1.246-2.063C1.48 8.111 1 6.815 1 6a5 5 0 1 1 10 0c0 .815-.48 2.111-1.351 3.697a32.45 32.45 0 0 1-1.246 2.063A49.802 49.802 0 0 1 6 15.122zm0 0a41.154 41.154 0 0 1-.296.375l-.083.123c.14-.174.62-.171.757-.001l-.082-.122A24.355 24.355 0 0 1 6 15.122z"/>
        <circle cx="6" cy="6" r="2"/>
    </g>
</svg>
