<?xml version="1.0"?>
<svg xmlns="http://www.w3.org/2000/svg" id="Capa_1" enable-background="new 0 0 512 512" height="196px" viewBox="0 0 512 512" width="250px" class=""><g><circle cx="114.472" cy="114.472" fill="#fcdd2e" r="114.472" data-original="#FCDD2E" class="" data-old_color="#fcdd2e" style="fill:#FAFBFD"/><path d="m185.794 24.938c15.605 19.564 24.938 44.352 24.938 71.322 0 63.221-51.251 114.472-114.472 114.472-26.971 0-51.758-9.333-71.322-24.938 20.974 26.295 53.283 43.149 89.534 43.149 63.221 0 114.472-51.251 114.472-114.472-.001-36.25-16.855-68.559-43.15-89.533z" fill="#f9c301" data-original="#F9C301" class="" data-old_color="#f9c301" style="fill:#7FCBCF"/><circle cx="397.528" cy="114.472" fill="#fc8086" r="114.472" data-original="#FC8086" class="" data-old_color="#fc8086" style="fill:#FAFBFD"/><path d="m468.851 24.938c15.605 19.564 24.938 44.352 24.938 71.322 0 63.221-51.251 114.472-114.472 114.472-26.971 0-51.758-9.333-71.322-24.938 20.974 26.295 53.283 43.149 89.534 43.149 63.221 0 114.472-51.251 114.472-114.472-.001-36.25-16.855-68.559-43.15-89.533z" fill="#fa4954" data-original="#FA4954" class="" data-old_color="#fa4954" style="fill:#7FCBCF"/><circle cx="114.472" cy="397.528" fill="#6df3bf" r="114.472" data-original="#6DF3BF" class="active-path" data-old_color="#6df3bf" style="fill:#FAFBFD"/><path d="m185.794 307.995c15.605 19.564 24.938 44.352 24.938 71.322 0 63.221-51.251 114.472-114.472 114.472-26.971 0-51.758-9.333-71.322-24.938 20.974 26.295 53.283 43.149 89.534 43.149 63.221 0 114.472-51.251 114.472-114.472-.001-36.25-16.855-68.559-43.15-89.533z" fill="#05e29a" data-original="#05E29A" class="" data-old_color="#05e29a" style="fill:#7FCBCF"/><circle cx="397.528" cy="397.528" fill="#97e4f9" r="114.472" data-original="#97E4F9" class="" data-old_color="#97e4f9" style="fill:#FAFBFD"/><path d="m468.851 307.995c15.605 19.564 24.938 44.352 24.938 71.322 0 63.221-51.251 114.472-114.472 114.472-26.971 0-51.758-9.333-71.322-24.938 20.974 26.295 53.283 43.149 89.533 43.149 63.221 0 114.472-51.251 114.472-114.472 0-36.25-16.854-68.559-43.149-89.533z" fill="#0acefa" data-original="#0ACEFA" class="" data-old_color="#0acefa" style="fill:#7FCBCF"/><g fill="#786e79"><path d="m446.881 93.658v-20.812c0-15.736-12.803-28.539-28.54-28.539h-41.626c-15.736 0-28.539 12.803-28.539 28.539v9.366c0 4.267 3.459 7.726 7.726 7.726s7.726-3.459 7.726-7.726v-9.366c0-7.216 5.87-13.087 13.087-13.087h41.626c7.216 0 13.088 5.871 13.088 13.087v20.813c0 7.216-5.871 13.087-13.088 13.087h-31.219c-4.268 0-7.726 3.459-7.726 7.726s3.459 7.726 7.726 7.726h31.219c7.216 0 13.088 5.871 13.088 13.087v20.813c0 7.216-5.871 13.087-13.088 13.087h-41.626c-7.216 0-13.087-5.871-13.087-13.087v-9.366c0-4.267-3.459-7.726-7.726-7.726s-7.726 3.459-7.726 7.726v9.366c0 15.736 12.803 28.539 28.539 28.539h41.626c15.737 0 28.54-12.803 28.54-28.539v-20.813c0-8.202-3.483-15.603-9.042-20.813 5.559-5.211 9.042-12.611 9.042-20.814z" data-original="#000000" class="" style="fill:#000000" data-old_color="#000000"/><path d="m135.285 184.637h-41.626c-15.737 0-28.54-12.803-28.54-28.539v-20.813c0-15.737 12.803-28.54 28.54-28.54h41.626c7.216 0 13.087-5.871 13.087-13.087v-20.812c0-7.216-5.87-13.087-13.087-13.087h-41.626c-7.216 0-13.088 5.871-13.088 13.087v7.285c0 4.267-3.459 7.726-7.726 7.726s-7.726-3.459-7.726-7.726v-7.285c0-15.736 12.803-28.539 28.54-28.539h41.626c15.736 0 28.539 12.803 28.539 28.539v20.813c0 15.736-12.803 28.539-28.539 28.539h-41.626c-7.216 0-13.088 5.871-13.088 13.087v20.813c0 7.216 5.871 13.087 13.088 13.087h41.626c7.216 0 13.087-5.871 13.087-13.087v-6.244c0-4.267 3.459-7.726 7.726-7.726 4.268 0 7.726 3.459 7.726 7.726v6.244c0 15.736-12.803 28.539-28.539 28.539z" data-original="#000000" class="" style="fill:#000000" data-old_color="#000000"/><path d="m135.285 467.694h-41.626c-15.737 0-28.54-12.803-28.54-28.539v-7.285c0-4.267 3.459-7.726 7.726-7.726s7.726 3.459 7.726 7.726v7.285c0 7.216 5.871 13.087 13.088 13.087h41.626c7.216 0 13.087-5.871 13.087-13.087v-20.813c0-7.216-5.87-13.087-13.087-13.087h-41.626c-15.737 0-28.54-12.803-28.54-28.54v-41.625c0-4.267 3.459-7.726 7.726-7.726h83.253c4.268 0 7.726 3.459 7.726 7.726v27.057c0 4.267-3.459 7.726-7.726 7.726-4.268 0-7.726-3.459-7.726-7.726v-19.331h-67.8v33.899c0 7.216 5.871 13.087 13.088 13.087h41.626c15.736 0 28.539 12.803 28.539 28.539v20.813c-.001 15.737-12.804 28.54-28.54 28.54z" data-original="#000000" class="" style="fill:#000000" data-old_color="#000000"/><path d="m438.114 389.802h-9.052l8.292-24.875c2.936-8.808 1.506-18.18-3.923-25.712-5.43-7.532-13.868-11.852-23.153-11.852h-33.562c-15.736 0-28.539 12.803-28.539 28.539v7.285c0 4.267 3.459 7.726 7.726 7.726s7.726-3.459 7.726-7.726v-7.285c0-7.216 5.87-13.087 13.087-13.087h33.562c4.258 0 8.127 1.981 10.617 5.435 2.489 3.454 3.145 7.752 1.799 11.79l-9.921 29.762h-19.268c-4.268 0-7.726 3.459-7.726 7.726s3.459 7.726 7.726 7.726h14.116l-17.423 52.269c-1.349 4.048.838 8.424 4.886 9.773.811.27 1.635.398 2.445.398 3.235 0 6.25-2.048 7.329-5.285l19.052-57.155h14.203c4.268 0 7.726-3.459 7.726-7.726.001-4.266-3.458-7.726-7.725-7.726z" data-original="#000000" class="" style="fill:#000000" data-old_color="#000000"/></g></g> </svg>
